<svg width="106" height="63" viewBox="0 0 106 63" fill="none" xmlns="http://www.w3.org/2000/svg">
<path fill-rule="evenodd" clip-rule="evenodd" d="M32 0C29.2386 0 27 2.23858 27 5C27 6.35441 27.5385 7.58304 28.4131 8.48345L28.1932 29.6578C28.139 34.8842 29.2867 38.9563 31.6366 41.8742C33.9864 44.7921 37.2612 46.2728 41.461 46.3165C44.3075 46.346 46.8363 45.5089 49.0475 43.8051C51.3048 42.1484 52.7751 39.8769 53.4585 36.9905C54.1323 39.5177 55.418 41.5378 57.3157 43.0509C59.2596 44.6112 61.6782 45.4063 64.5714 45.4364C68.6311 45.4785 71.796 44.0647 74.0659 41.1948C76.3354 38.3715 77.4962 34.44 77.5486 29.4003L77.7678 8.28696C78.5352 7.40811 79 6.25834 79 5C79 2.23858 76.7614 0 74 0H32ZM57.9809 26.1869L58.0529 19.2573L66.7324 19.3474L66.6604 26.2771C66.6246 29.7302 65.1367 31.4415 62.1969 31.411C59.3504 31.3814 57.945 29.6401 57.9809 26.1869ZM43.567 32.2676C40.6738 32.2375 39.2451 30.4959 39.281 27.0428L39.3639 19.0632L48.3234 19.1562L48.2412 27.0658C48.2238 28.7457 47.8138 30.0249 47.0113 30.9033C46.2083 31.8283 45.0602 32.2831 43.567 32.2676Z" fill="url(#paint0_linear_1041_10286)"/>
<path d="M49.0654 34.885L56.7597 34.9398C56.8242 34.9402 56.8835 34.9752 56.9151 35.0314L61.1223 42.5172C62.2498 44.379 61.587 46.0276 61.1045 46.6351C61.0966 46.6451 61.09 46.6553 61.0842 46.6665L53.4288 61.7089C53.3423 61.8788 53.0856 61.8148 53.089 61.6241L53.3702 45.993C53.3715 45.9218 53.4152 45.8587 53.4791 45.8273C54.3827 45.3834 54.3959 44.4903 54.2834 44.0856C54.1458 43.2222 53.273 43.0004 52.8537 42.9974C51.9913 42.9913 51.5311 43.7067 51.4087 44.0652C51.1366 45.1215 51.7603 45.7582 52.1872 45.9953C52.2501 46.0302 52.2927 46.0945 52.2922 46.1664L52.1822 61.6097C52.1809 61.8007 51.9232 61.8612 51.8415 61.6884C49.5007 56.7368 45.2392 47.769 44.5635 46.5319C43.854 45.2332 44.1643 43.7141 44.4081 43.117L48.9069 34.9777C48.9388 34.9201 48.9996 34.8845 49.0654 34.885Z" fill="url(#paint1_linear_1041_10286)"/>
<rect x="56.7871" y="34.043" width="7.90557" height="3.95279" rx="0.718688" transform="rotate(-179.592 56.7871 34.043)" fill="url(#paint2_linear_1041_10286)"/>
<defs>
<linearGradient id="paint0_linear_1041_10286" x1="53" y1="-1.67294e-07" x2="53" y2="78.5" gradientUnits="userSpaceOnUse">
<stop stop-color="#7B61FF"/>
<stop offset="1" stop-color="#A6FF7C"/>
</linearGradient>
<linearGradient id="paint1_linear_1041_10286" x1="53.0035" y1="34.913" x2="53" y2="58.5" gradientUnits="userSpaceOnUse">
<stop stop-color="#A6FF7C"/>
<stop offset="1" stop-color="#64994A"/>
</linearGradient>
<linearGradient id="paint2_linear_1041_10286" x1="60.7399" y1="37.9958" x2="61.0282" y2="27.5556" gradientUnits="userSpaceOnUse">
<stop stop-color="#A6FF7C"/>
<stop offset="1" stop-color="#64994A"/>
</linearGradient>
</defs>
</svg>
