<svg width="524" height="250" viewBox="0 0 524 250" fill="none" xmlns="http://www.w3.org/2000/svg">
<path d="M0.0940165 109.82L1.30329 238.003C1.35494 243.479 5.80051 247.894 11.2761 247.909L513.6 249.252C519.156 249.267 523.658 244.751 523.627 239.196L522.343 10.6475C522.312 5.14663 517.844 0.703644 512.343 0.703644H249.386C246.238 0.703644 243.274 2.18559 241.386 4.70365L192.923 69.3211C191.034 71.8392 188.07 73.3211 184.923 73.3211H133.368C130.282 73.3211 127.369 74.7458 125.474 77.1817L111.88 94.6598C110.013 97.0602 107.156 98.4806 104.115 98.5196L9.96538 99.7267C4.4562 99.7973 0.0420412 104.311 0.0940165 109.82Z" fill="#7960FD"/>
</svg>
