<svg width="342" height="285" viewBox="0 0 342 285" fill="none" xmlns="http://www.w3.org/2000/svg">
<circle cx="284.181" cy="45" r="41" fill="#3B364A"/>
<circle cx="284.529" cy="44.986" r="28.2301" fill="#A5FE7D" stroke="#7960FD" stroke-width="2.25841"/>
<path d="M291.304 38.2108L277.754 51.7613M277.754 51.7613V41.5984M277.754 51.7613H287.917" stroke="black" stroke-width="1.69381" stroke-linecap="round" stroke-linejoin="round"/>
<path d="M21.1807 273.776V12.7415C21.1807 6.5754 26.1548 1.56393 32.3207 1.51783L224.004 0.0845525C230.235 0.0379581 235.312 5.07658 235.312 11.3082V51.236C235.312 83.2584 265.902 92.3315 281.197 92.8652H320.957C327.156 92.8652 332.181 97.8903 332.181 104.089V273.776C332.181 279.975 327.156 285 320.957 285H32.4046C26.2058 285 21.1807 279.975 21.1807 273.776Z" fill="#A5FE7D"/>
<path d="M83.8909 18.9901V16.4545H95.8369V18.9901H91.3838V31H88.344V18.9901H83.8909ZM101.094 31.2131C99.9912 31.2131 99.0371 30.9787 98.2322 30.5099C97.432 30.0365 96.8141 29.3783 96.3785 28.5355C95.9429 27.688 95.7251 26.7055 95.7251 25.5881C95.7251 24.4612 95.9429 23.4763 96.3785 22.6335C96.8141 21.786 97.432 21.1278 98.2322 20.6591C99.0371 20.1856 99.9912 19.9489 101.094 19.9489C102.198 19.9489 103.149 20.1856 103.949 20.6591C104.754 21.1278 105.375 21.786 105.81 22.6335C106.246 23.4763 106.464 24.4612 106.464 25.5881C106.464 26.7055 106.246 27.688 105.81 28.5355C105.375 29.3783 104.754 30.0365 103.949 30.5099C103.149 30.9787 102.198 31.2131 101.094 31.2131ZM101.109 28.8693C101.61 28.8693 102.03 28.7273 102.366 28.4432C102.702 28.1544 102.955 27.7614 103.126 27.2642C103.301 26.767 103.388 26.2012 103.388 25.5668C103.388 24.9323 103.301 24.3665 103.126 23.8693C102.955 23.3722 102.702 22.9792 102.366 22.6903C102.03 22.4015 101.61 22.2571 101.109 22.2571C100.602 22.2571 100.176 22.4015 99.8302 22.6903C99.4893 22.9792 99.2312 23.3722 99.056 23.8693C98.8856 24.3665 98.8003 24.9323 98.8003 25.5668C98.8003 26.2012 98.8856 26.767 99.056 27.2642C99.2312 27.7614 99.4893 28.1544 99.8302 28.4432C100.176 28.7273 100.602 28.8693 101.109 28.8693ZM114.234 20.0909V22.3636H107.664V20.0909H114.234ZM109.155 17.4773H112.181V27.6477C112.181 27.9271 112.224 28.1449 112.309 28.3011C112.394 28.4527 112.512 28.5592 112.664 28.6207C112.82 28.6823 113 28.7131 113.204 28.7131C113.346 28.7131 113.488 28.7012 113.63 28.6776C113.772 28.6491 113.881 28.6278 113.957 28.6136L114.432 30.8651C114.281 30.9124 114.068 30.9669 113.793 31.0284C113.519 31.0947 113.185 31.1349 112.792 31.1491C112.063 31.1776 111.423 31.0805 110.874 30.858C110.33 30.6354 109.906 30.2898 109.603 29.821C109.3 29.3523 109.151 28.7604 109.155 28.0455V17.4773ZM119.315 31.206C118.619 31.206 117.999 31.0852 117.454 30.8438C116.91 30.5975 116.479 30.2353 116.162 29.7571C115.849 29.2741 115.693 28.6728 115.693 27.9531C115.693 27.3471 115.804 26.8381 116.027 26.4261C116.249 26.0142 116.552 25.6828 116.936 25.4318C117.32 25.1809 117.755 24.9915 118.243 24.8636C118.735 24.7358 119.251 24.6458 119.791 24.5938C120.426 24.5275 120.937 24.4659 121.325 24.4091C121.713 24.3475 121.995 24.2576 122.17 24.1392C122.346 24.0208 122.433 23.8456 122.433 23.6136V23.571C122.433 23.1212 122.291 22.7732 122.007 22.527C121.728 22.2808 121.33 22.1577 120.814 22.1577C120.269 22.1577 119.836 22.2784 119.514 22.5199C119.192 22.7566 118.979 23.0549 118.875 23.4148L116.077 23.1875C116.219 22.5246 116.498 21.9517 116.915 21.4688C117.331 20.9811 117.869 20.607 118.527 20.3466C119.19 20.0814 119.957 19.9489 120.828 19.9489C121.434 19.9489 122.014 20.0199 122.568 20.1619C123.127 20.304 123.622 20.5241 124.052 20.8224C124.488 21.1207 124.831 21.5043 125.082 21.973C125.333 22.437 125.459 22.9934 125.459 23.642V31H122.589V29.4872H122.504C122.329 29.8281 122.095 30.1288 121.801 30.3892C121.507 30.6449 121.155 30.8461 120.743 30.9929C120.331 31.1349 119.855 31.206 119.315 31.206ZM120.182 29.1179C120.627 29.1179 121.02 29.0303 121.361 28.8551C121.702 28.6752 121.969 28.4337 122.163 28.1307C122.357 27.8277 122.454 27.4844 122.454 27.1009V25.9432C122.36 26.0047 122.23 26.0616 122.064 26.1136C121.903 26.161 121.721 26.206 121.517 26.2486C121.313 26.2865 121.11 26.322 120.906 26.3551C120.703 26.3835 120.518 26.4096 120.352 26.4332C119.997 26.4853 119.687 26.5682 119.422 26.6818C119.157 26.7955 118.951 26.9493 118.804 27.1435C118.657 27.3329 118.584 27.5696 118.584 27.8537C118.584 28.2656 118.733 28.5805 119.031 28.7983C119.334 29.0114 119.718 29.1179 120.182 29.1179ZM130.832 16.4545V31H127.806V16.4545H130.832ZM140.91 24.6932V31H137.884V20.0909H140.768V22.0156H140.896C141.137 21.3812 141.542 20.8793 142.11 20.5099C142.678 20.1359 143.367 19.9489 144.177 19.9489C144.934 19.9489 145.595 20.1146 146.158 20.446C146.722 20.7775 147.16 21.2509 147.472 21.8665C147.785 22.4773 147.941 23.2064 147.941 24.054V31H144.915V24.5938C144.92 23.9261 144.75 23.4053 144.404 23.0312C144.058 22.6525 143.583 22.4631 142.976 22.4631C142.569 22.4631 142.209 22.5507 141.897 22.7259C141.589 22.901 141.348 23.1567 141.172 23.4929C141.002 23.8243 140.914 24.2244 140.91 24.6932ZM157.321 26.3551V20.0909H160.347V31H157.442V29.0185H157.328C157.082 29.6577 156.673 30.1714 156.1 30.5597C155.532 30.9479 154.838 31.142 154.019 31.142C153.29 31.142 152.648 30.9763 152.094 30.6449C151.54 30.3134 151.107 29.8423 150.794 29.2315C150.487 28.6207 150.33 27.8892 150.326 27.0369V20.0909H153.351V26.4972C153.356 27.1411 153.529 27.6501 153.87 28.0241C154.21 28.3982 154.667 28.5852 155.24 28.5852C155.605 28.5852 155.946 28.5024 156.263 28.3366C156.58 28.1662 156.836 27.9152 157.03 27.5838C157.229 27.2524 157.326 26.8428 157.321 26.3551ZM162.767 31V20.0909H165.65V22.0156H165.778C166.006 21.3764 166.384 20.8722 166.915 20.5028C167.445 20.1335 168.079 19.9489 168.818 19.9489C169.566 19.9489 170.203 20.1359 170.729 20.5099C171.254 20.8793 171.605 21.3812 171.78 22.0156H171.893C172.116 21.3906 172.518 20.8911 173.101 20.517C173.688 20.1383 174.382 19.9489 175.182 19.9489C176.2 19.9489 177.026 20.2732 177.66 20.9219C178.3 21.5658 178.619 22.4796 178.619 23.6634V31H175.601V24.2599C175.601 23.6539 175.44 23.1993 175.118 22.8963C174.796 22.5933 174.393 22.4418 173.91 22.4418C173.361 22.4418 172.933 22.617 172.625 22.9673C172.317 23.313 172.163 23.7699 172.163 24.3381V31H169.23V24.196C169.23 23.661 169.076 23.2348 168.768 22.9176C168.465 22.6004 168.065 22.4418 167.568 22.4418C167.232 22.4418 166.929 22.527 166.659 22.6974C166.394 22.8632 166.183 23.0975 166.027 23.4006C165.871 23.6989 165.793 24.0492 165.793 24.4517V31H162.767ZM181.066 31V16.4545H184.092V21.9233H184.184C184.316 21.6297 184.508 21.3314 184.759 21.0284C185.015 20.7206 185.346 20.465 185.753 20.2614C186.165 20.053 186.677 19.9489 187.288 19.9489C188.083 19.9489 188.817 20.1572 189.489 20.5739C190.162 20.9858 190.699 21.6084 191.101 22.4418C191.504 23.2704 191.705 24.3097 191.705 25.5597C191.705 26.7765 191.509 27.804 191.116 28.642C190.727 29.4754 190.197 30.1075 189.525 30.5384C188.857 30.9645 188.109 31.1776 187.28 31.1776C186.693 31.1776 186.194 31.0805 185.782 30.8864C185.375 30.6922 185.041 30.4484 184.78 30.1548C184.52 29.8565 184.321 29.5559 184.184 29.2528H184.049V31H181.066ZM184.028 25.5455C184.028 26.1941 184.118 26.7599 184.297 27.2429C184.477 27.7259 184.738 28.1023 185.079 28.3722C185.42 28.6373 185.834 28.7699 186.322 28.7699C186.814 28.7699 187.231 28.6349 187.572 28.3651C187.913 28.0904 188.171 27.7116 188.346 27.2287C188.526 26.741 188.616 26.1799 188.616 25.5455C188.616 24.9157 188.528 24.3617 188.353 23.8835C188.178 23.4053 187.92 23.0312 187.579 22.7614C187.238 22.4915 186.819 22.3565 186.322 22.3565C185.829 22.3565 185.413 22.4867 185.072 22.7472C184.735 23.0076 184.477 23.3769 184.297 23.8551C184.118 24.3333 184.028 24.8968 184.028 25.5455ZM198.696 31.2131C197.573 31.2131 196.608 30.9858 195.798 30.5312C194.993 30.072 194.373 29.4233 193.937 28.5852C193.501 27.7424 193.284 26.7457 193.284 25.5952C193.284 24.473 193.501 23.4882 193.937 22.6406C194.373 21.7931 194.986 21.1326 195.777 20.6591C196.572 20.1856 197.505 19.9489 198.575 19.9489C199.295 19.9489 199.965 20.0649 200.585 20.2969C201.21 20.5241 201.754 20.8674 202.218 21.3267C202.687 21.786 203.052 22.3636 203.312 23.0597C203.572 23.7509 203.703 24.5606 203.703 25.4886V26.3196H194.491V24.4446H200.855C200.855 24.009 200.76 23.6231 200.571 23.2869C200.381 22.9508 200.118 22.688 199.782 22.4986C199.451 22.3045 199.065 22.2074 198.625 22.2074C198.165 22.2074 197.758 22.3139 197.403 22.527C197.053 22.7353 196.778 23.017 196.579 23.3722C196.38 23.7225 196.278 24.1132 196.274 24.544V26.3267C196.274 26.8665 196.373 27.3329 196.572 27.7259C196.776 28.1188 197.062 28.4219 197.431 28.6349C197.801 28.848 198.239 28.9545 198.745 28.9545C199.081 28.9545 199.389 28.9072 199.669 28.8125C199.948 28.7178 200.187 28.5758 200.386 28.3864C200.585 28.197 200.736 27.965 200.84 27.6903L203.639 27.875C203.497 28.5473 203.206 29.1345 202.765 29.6364C202.33 30.1335 201.766 30.5218 201.075 30.8011C200.388 31.0758 199.595 31.2131 198.696 31.2131ZM205.677 31V20.0909H208.61V21.9943H208.724C208.923 21.3172 209.257 20.8059 209.725 20.4602C210.194 20.1098 210.734 19.9347 211.345 19.9347C211.496 19.9347 211.66 19.9441 211.835 19.9631C212.01 19.982 212.164 20.008 212.296 20.0412V22.7259C212.154 22.6832 211.958 22.6454 211.707 22.6122C211.456 22.5791 211.226 22.5625 211.018 22.5625C210.573 22.5625 210.175 22.6596 209.825 22.8537C209.479 23.0431 209.205 23.3082 209.001 23.6491C208.802 23.9901 208.703 24.383 208.703 24.8281V31H205.677ZM89.317 55.2131C88.2138 55.2131 87.2597 54.9787 86.4548 54.5099C85.6546 54.0365 85.0367 53.3783 84.6011 52.5355C84.1655 51.688 83.9477 50.7055 83.9477 49.5881C83.9477 48.4612 84.1655 47.4763 84.6011 46.6335C85.0367 45.786 85.6546 45.1278 86.4548 44.6591C87.2597 44.1856 88.2138 43.9489 89.317 43.9489C90.4202 43.9489 91.372 44.1856 92.1721 44.6591C92.9771 45.1278 93.5973 45.786 94.0329 46.6335C94.4685 47.4763 94.6863 48.4612 94.6863 49.5881C94.6863 50.7055 94.4685 51.688 94.0329 52.5355C93.5973 53.3783 92.9771 54.0365 92.1721 54.5099C91.372 54.9787 90.4202 55.2131 89.317 55.2131ZM89.3312 52.8693C89.8331 52.8693 90.2522 52.7273 90.5883 52.4432C90.9245 52.1544 91.1778 51.7614 91.3483 51.2642C91.5235 50.767 91.6111 50.2012 91.6111 49.5668C91.6111 48.9323 91.5235 48.3665 91.3483 47.8693C91.1778 47.3722 90.9245 46.9792 90.5883 46.6903C90.2522 46.4015 89.8331 46.2571 89.3312 46.2571C88.8246 46.2571 88.3985 46.4015 88.0528 46.6903C87.7119 46.9792 87.4539 47.3722 87.2787 47.8693C87.1082 48.3665 87.023 48.9323 87.023 49.5668C87.023 50.2012 87.1082 50.767 87.2787 51.2642C87.4539 51.7614 87.7119 52.1544 88.0528 52.4432C88.3985 52.7273 88.8246 52.8693 89.3312 52.8693ZM102.52 44.0909V46.3636H95.7872V44.0909H102.52ZM97.3284 55V43.3026C97.3284 42.5118 97.4823 41.8561 97.79 41.3352C98.1025 40.8144 98.5287 40.4238 99.0684 40.1634C99.6082 39.9029 100.221 39.7727 100.908 39.7727C101.372 39.7727 101.796 39.8082 102.179 39.8793C102.568 39.9503 102.856 40.0142 103.046 40.071L102.506 42.3438C102.388 42.3059 102.241 42.2704 102.066 42.2372C101.895 42.2041 101.72 42.1875 101.54 42.1875C101.095 42.1875 100.785 42.2917 100.61 42.5C100.434 42.7036 100.347 42.9901 100.347 43.3594V55H97.3284ZM115.993 50.3551V44.0909H119.019V55H116.114V53.0185H116C115.754 53.6577 115.344 54.1714 114.772 54.5597C114.203 54.9479 113.51 55.142 112.691 55.142C111.961 55.142 111.32 54.9763 110.766 54.6449C110.212 54.3134 109.779 53.8423 109.466 53.2315C109.158 52.6207 109.002 51.8892 108.997 51.0369V44.0909H112.023V50.4972C112.028 51.1411 112.201 51.6501 112.541 52.0241C112.882 52.3982 113.339 52.5852 113.912 52.5852C114.277 52.5852 114.618 52.5024 114.935 52.3366C115.252 52.1662 115.508 51.9152 115.702 51.5838C115.901 51.2524 115.998 50.8428 115.993 50.3551ZM130.516 47.2017L127.746 47.3722C127.698 47.1354 127.597 46.9223 127.44 46.733C127.284 46.5388 127.078 46.3849 126.822 46.2713C126.571 46.1529 126.271 46.0938 125.92 46.0938C125.452 46.0938 125.056 46.1932 124.734 46.392C124.412 46.5862 124.251 46.8466 124.251 47.1733C124.251 47.4337 124.355 47.6539 124.564 47.8338C124.772 48.0137 125.13 48.1581 125.636 48.267L127.611 48.6648C128.671 48.8826 129.462 49.233 129.983 49.7159C130.504 50.1989 130.764 50.8333 130.764 51.6193C130.764 52.3343 130.553 52.9616 130.132 53.5014C129.715 54.0412 129.142 54.4626 128.413 54.7656C127.689 55.0639 126.853 55.2131 125.906 55.2131C124.462 55.2131 123.311 54.9124 122.454 54.3111C121.602 53.705 121.103 52.8812 120.956 51.8395L123.932 51.6832C124.022 52.1236 124.239 52.4598 124.585 52.6918C124.931 52.919 125.373 53.0327 125.913 53.0327C126.444 53.0327 126.87 52.9309 127.192 52.7273C127.518 52.5189 127.684 52.2514 127.689 51.9247C127.684 51.6501 127.568 51.4252 127.341 51.25C127.114 51.0701 126.763 50.9328 126.29 50.8381L124.4 50.4616C123.335 50.2486 122.542 49.8793 122.021 49.3537C121.505 48.8281 121.247 48.1581 121.247 47.3438C121.247 46.643 121.436 46.0393 121.815 45.5327C122.199 45.026 122.736 44.6354 123.427 44.3608C124.123 44.0862 124.938 43.9489 125.871 43.9489C127.248 43.9489 128.333 44.2401 129.123 44.8224C129.919 45.4048 130.383 46.1979 130.516 47.2017ZM137.641 55.2131C136.519 55.2131 135.553 54.9858 134.743 54.5312C133.938 54.072 133.318 53.4233 132.882 52.5852C132.447 51.7424 132.229 50.7457 132.229 49.5952C132.229 48.473 132.447 47.4882 132.882 46.6406C133.318 45.7931 133.931 45.1326 134.722 44.6591C135.517 44.1856 136.45 43.9489 137.52 43.9489C138.24 43.9489 138.91 44.0649 139.53 44.2969C140.155 44.5241 140.7 44.8674 141.164 45.3267C141.632 45.786 141.997 46.3636 142.257 47.0597C142.518 47.7509 142.648 48.5606 142.648 49.4886V50.3196H133.436V48.4446H139.8C139.8 48.009 139.705 47.6231 139.516 47.2869C139.326 46.9508 139.064 46.688 138.728 46.4986C138.396 46.3045 138.01 46.2074 137.57 46.2074C137.111 46.2074 136.703 46.3139 136.348 46.527C135.998 46.7353 135.723 47.017 135.524 47.3722C135.326 47.7225 135.224 48.1132 135.219 48.544V50.3267C135.219 50.8665 135.318 51.3329 135.517 51.7259C135.721 52.1188 136.007 52.4219 136.377 52.6349C136.746 52.848 137.184 52.9545 137.691 52.9545C138.027 52.9545 138.335 52.9072 138.614 52.8125C138.893 52.7178 139.132 52.5758 139.331 52.3864C139.53 52.197 139.682 51.965 139.786 51.6903L142.584 51.875C142.442 52.5473 142.151 53.1345 141.71 53.6364C141.275 54.1335 140.711 54.5218 140.02 54.8011C139.334 55.0758 138.541 55.2131 137.641 55.2131ZM144.622 55V44.0909H147.556V45.9943H147.669C147.868 45.3172 148.202 44.8059 148.671 44.4602C149.139 44.1098 149.679 43.9347 150.29 43.9347C150.442 43.9347 150.605 43.9441 150.78 43.9631C150.955 43.982 151.109 44.008 151.242 44.0412V46.7259C151.1 46.6832 150.903 46.6454 150.652 46.6122C150.401 46.5791 150.172 46.5625 149.963 46.5625C149.518 46.5625 149.121 46.6596 148.77 46.8537C148.425 47.0431 148.15 47.3082 147.946 47.6491C147.747 47.9901 147.648 48.383 147.648 48.8281V55H144.622ZM161.883 47.2017L159.113 47.3722C159.065 47.1354 158.964 46.9223 158.807 46.733C158.651 46.5388 158.445 46.3849 158.19 46.2713C157.939 46.1529 157.638 46.0938 157.288 46.0938C156.819 46.0938 156.423 46.1932 156.101 46.392C155.78 46.5862 155.619 46.8466 155.619 47.1733C155.619 47.4337 155.723 47.6539 155.931 47.8338C156.139 48.0137 156.497 48.1581 157.003 48.267L158.978 48.6648C160.039 48.8826 160.829 49.233 161.35 49.7159C161.871 50.1989 162.131 50.8333 162.131 51.6193C162.131 52.3343 161.921 52.9616 161.499 53.5014C161.083 54.0412 160.51 54.4626 159.78 54.7656C159.056 55.0639 158.22 55.2131 157.273 55.2131C155.829 55.2131 154.679 54.9124 153.822 54.3111C152.969 53.705 152.47 52.8812 152.323 51.8395L155.299 51.6832C155.389 52.1236 155.607 52.4598 155.952 52.6918C156.298 52.919 156.741 53.0327 157.28 53.0327C157.811 53.0327 158.237 52.9309 158.559 52.7273C158.886 52.5189 159.051 52.2514 159.056 51.9247C159.051 51.6501 158.935 51.4252 158.708 51.25C158.481 51.0701 158.13 50.9328 157.657 50.8381L155.768 50.4616C154.702 50.2486 153.909 49.8793 153.388 49.3537C152.872 48.8281 152.614 48.1581 152.614 47.3438C152.614 46.643 152.804 46.0393 153.182 45.5327C153.566 45.026 154.103 44.6354 154.795 44.3608C155.491 44.0862 156.305 43.9489 157.238 43.9489C158.616 43.9489 159.7 44.2401 160.491 44.8224C161.286 45.4048 161.75 46.1979 161.883 47.2017Z" fill="black"/>
<path d="M52.8466 121.627C49.503 121.627 46.5251 121.052 43.913 119.903C41.3157 118.739 39.2633 117.141 37.7558 115.111C36.2631 113.067 35.4944 110.708 35.4496 108.036H45.2116C45.2713 109.156 45.637 110.141 46.3087 110.992C46.9953 111.828 47.9058 112.477 49.0403 112.94C50.1747 113.402 51.4509 113.634 52.8689 113.634C54.3467 113.634 55.6528 113.373 56.7872 112.85C57.9216 112.328 58.8097 111.604 59.4516 110.678C60.0934 109.753 60.4143 108.686 60.4143 107.476C60.4143 106.253 60.071 105.17 59.3844 104.23C58.7127 103.275 57.7425 102.528 56.4737 101.991C55.2199 101.454 53.7272 101.185 51.9957 101.185H47.7193V94.0649H51.9957C53.4585 94.0649 54.7497 93.8112 55.8692 93.3037C57.0036 92.7962 57.8843 92.0946 58.5112 91.199C59.1381 90.2885 59.4516 89.2287 59.4516 88.0197C59.4516 86.8703 59.1754 85.8628 58.6232 84.997C58.0858 84.1163 57.3245 83.4297 56.3394 82.9371C55.3692 82.4446 54.2347 82.1983 52.9361 82.1983C51.6226 82.1983 50.421 82.4371 49.3313 82.9148C48.2417 83.3775 47.3685 84.0417 46.7117 84.9075C46.0549 85.7732 45.7042 86.7882 45.6594 87.9525H36.3676C36.4124 85.3105 37.1662 82.9819 38.629 80.9668C40.0918 78.9517 42.0621 77.377 44.5399 76.2426C47.0326 75.0932 49.8463 74.5185 52.9809 74.5185C56.1453 74.5185 58.9142 75.0932 61.2876 76.2426C63.6609 77.3919 65.5043 78.9443 66.8179 80.8997C68.1463 82.8401 68.8031 85.0194 68.7882 87.4375C68.8031 90.0049 68.0045 92.1469 66.3925 93.8634C64.7953 95.58 62.713 96.6696 60.1457 97.1323V97.4906C63.5191 97.9235 66.0865 99.0952 67.8478 101.006C69.6241 102.901 70.5047 105.275 70.4898 108.126C70.5047 110.738 69.7509 113.059 68.2284 115.089C66.7208 117.119 64.6386 118.716 61.9816 119.881C59.3247 121.045 56.2797 121.627 52.8466 121.627ZM76.7646 112.94V105.305L95.908 75.1455H102.491V85.7135H98.5947L86.5266 104.812V105.17H113.73V112.94H76.7646ZM98.7739 121V110.611L98.953 107.23V75.1455H108.043V121H98.7739ZM138.169 122.008C134.318 121.993 131.004 121.045 128.228 119.164C125.466 117.283 123.339 114.559 121.847 110.992C120.369 107.424 119.638 103.133 119.652 98.1175C119.652 93.1171 120.391 88.8555 121.869 85.3329C123.362 81.8102 125.489 79.1309 128.25 77.2949C131.027 75.444 134.333 74.5185 138.169 74.5185C142.005 74.5185 145.304 75.444 148.065 77.2949C150.842 79.1458 152.976 81.8326 154.469 85.3553C155.961 88.863 156.7 93.1171 156.685 98.1175C156.685 103.148 155.939 107.447 154.446 111.014C152.969 114.582 150.849 117.306 148.088 119.186C145.326 121.067 142.02 122.008 138.169 122.008ZM138.169 113.97C140.796 113.97 142.893 112.649 144.46 110.007C146.028 107.365 146.804 103.402 146.789 98.1175C146.789 94.6396 146.431 91.7438 145.714 89.4302C145.013 87.1166 144.013 85.3776 142.714 84.2134C141.43 83.0491 139.915 82.467 138.169 82.467C135.557 82.467 133.467 83.773 131.9 86.3852C130.332 88.9973 129.541 92.9081 129.526 98.1175C129.526 101.64 129.877 104.581 130.579 106.939C131.295 109.283 132.303 111.044 133.601 112.223C134.9 113.387 136.423 113.97 138.169 113.97Z" fill="#7C62FF"/>
<path d="M21.5445 261.699C21.5445 261.699 41.8284 246.341 56.081 229.676C73.2216 209.634 78.3284 175.633 103.301 170.383C129.423 164.891 145.535 205.957 169.384 193.62C192.475 181.676 170.803 139.577 193.699 127.22C224.563 110.562 234.627 188.646 269.072 183.359C307.095 177.523 319.924 93.0549 319.924 93.0549" stroke="#7C62FF" stroke-width="2"/>
<path d="M61.5323 195.829C38.2844 202.496 22.1807 247.927 22.1807 247.927V284H332.181V187.718C332.181 187.718 325.03 224.192 308.4 233.889C281.508 249.57 272.79 182.617 242.719 187.718C228.057 190.205 223.862 206.742 209.03 207.06C187.572 207.519 187.744 169.063 166.281 169C138.185 168.918 152.293 226.78 124.948 233.889C97.501 241.024 88.8235 188.003 61.5323 195.829Z" fill="url(#paint0_linear_1358_2263)"/>
<rect x="32.1807" y="13.5" width="44" height="44" rx="22" fill="black"/>
<path d="M53.6803 32.4168C55.9815 32.4168 57.847 30.5513 57.847 28.2502C57.847 25.949 55.9815 24.0835 53.6803 24.0835C51.3792 24.0835 49.5137 25.949 49.5137 28.2502C49.5137 30.5513 51.3792 32.4168 53.6803 32.4168Z" fill="#A5FE7D"/>
<path d="M62.0133 40.2292C62.0133 42.8178 62.0133 44.9167 53.68 44.9167C45.3467 44.9167 45.3467 42.8178 45.3467 40.2292C45.3467 37.6407 49.0779 35.5417 53.68 35.5417C58.2821 35.5417 62.0133 37.6407 62.0133 40.2292Z" fill="#A5FE7D"/>
<defs>
<linearGradient id="paint0_linear_1358_2263" x1="177.181" y1="169" x2="177.181" y2="284" gradientUnits="userSpaceOnUse">
<stop stop-color="#4169E1" stop-opacity="0.12"/>
<stop offset="1" stop-color="#4169E1" stop-opacity="0.01"/>
</linearGradient>
</defs>
</svg>
