<svg width="117" height="47" viewBox="0 0 117 47" fill="none" xmlns="http://www.w3.org/2000/svg">
<path fill-rule="evenodd" clip-rule="evenodd" d="M4.60649 0.00195312C2.56938 0.00195312 0.917969 1.65336 0.917969 3.69048C0.917969 4.58529 1.2366 5.40568 1.76659 6.04438L1.60046 22.0415C1.56042 25.897 2.40714 28.9011 4.14062 31.0536C5.8741 33.2061 8.28994 34.2985 11.3881 34.3307C13.488 34.3525 15.3535 33.7349 16.9847 32.478C18.65 31.2559 19.7346 29.5802 20.2387 27.4509C20.7358 29.3152 21.6843 30.8054 23.0843 31.9217C24.5183 33.0727 26.3025 33.6593 28.4368 33.6814C31.4317 33.7125 33.7664 32.6695 35.441 30.5524C37.1151 28.4696 37.9715 25.5694 38.0101 21.8515L38.1714 6.32529C38.8547 5.6558 39.2786 4.72265 39.2786 3.69048C39.2786 1.65336 37.6272 0.00195312 35.5901 0.00195312H4.60649ZM23.575 19.481L23.628 14.369L30.031 14.4355L29.9779 19.5475C29.9514 22.0949 28.8538 23.3574 26.6851 23.3348C24.5852 23.313 23.5485 22.0284 23.575 19.481ZM12.9417 23.9667C10.8074 23.9446 9.7535 22.6598 9.77995 20.1124L9.84108 14.2258L16.4506 14.2945L16.39 20.1294C16.3771 21.3687 16.0747 22.3123 15.4827 22.9603C14.8903 23.6427 14.0433 23.9782 12.9417 23.9667Z" fill="url(#paint0_linear_1138_257)"/>
<path d="M17.1951 25.7362L22.8712 25.7766C22.9187 25.777 22.9625 25.8028 22.9858 25.8442L26.0895 31.3666C26.9212 32.74 26.4323 33.9562 26.0763 34.4044C26.0705 34.4117 26.0656 34.4192 26.0614 34.4275L20.4139 45.5243C20.3501 45.6497 20.1607 45.6025 20.1633 45.4618L20.3707 33.9307C20.3716 33.8782 20.4039 33.8316 20.4511 33.8085C21.1176 33.4809 21.1274 32.8222 21.0444 32.5236C20.9429 31.8866 20.299 31.723 19.9897 31.7208C19.3535 31.7163 19.014 32.244 18.9237 32.5085C18.723 33.2878 19.1831 33.7574 19.498 33.9324C19.5444 33.9581 19.5758 34.0056 19.5754 34.0586L19.4944 45.4512C19.4933 45.5921 19.3032 45.6367 19.243 45.5093C17.5161 41.8564 14.3725 35.2408 13.8739 34.3282C13.3506 33.3702 13.5795 32.2495 13.7593 31.809L17.0781 25.8047C17.1016 25.7621 17.1465 25.7359 17.1951 25.7362Z" fill="url(#paint1_linear_1138_257)"/>
<rect x="22.8926" y="25.1152" width="5.83198" height="2.91599" rx="0.53018" transform="rotate(-179.592 22.8926 25.1152)" fill="url(#paint2_linear_1138_257)"/>
<path d="M57.0804 11.5844V24H52.7206V22.2295C52.3517 22.7902 51.8427 23.2475 51.1935 23.6016C50.5444 23.941 49.7993 24.1107 48.9583 24.1107C47.5124 24.1107 46.369 23.6385 45.528 22.6943C44.7017 21.7352 44.2886 20.4369 44.2886 18.7992V11.5844H48.6042V18.2459C48.6042 18.9541 48.7886 19.5148 49.1575 19.9279C49.5411 20.3262 50.0427 20.5254 50.6624 20.5254C51.2968 20.5254 51.7985 20.3262 52.1673 19.9279C52.5362 19.5148 52.7206 18.9541 52.7206 18.2459V11.5844H57.0804ZM67.5163 24L65.2811 20.8795L63.5106 24H58.7524L62.8909 17.5598L58.5753 11.5844H63.4442L65.6794 14.7049L67.472 11.5844H72.2302L68.0032 17.9139L72.3852 24H67.5163ZM73.1803 17.7811C73.1803 16.4975 73.409 15.3762 73.8664 14.4172C74.3385 13.4582 74.9729 12.7205 75.7697 12.2041C76.5811 11.6877 77.4811 11.4295 78.4697 11.4295C79.3254 11.4295 80.0631 11.5992 80.6828 11.9385C81.3025 12.2779 81.782 12.7352 82.1213 13.3107V11.5844H86.459V24H82.1213V22.2738C81.782 22.8492 81.2951 23.3066 80.6606 23.6459C80.041 23.9852 79.3106 24.1549 78.4697 24.1549C77.4811 24.1549 76.5811 23.8967 75.7697 23.3803C74.9729 22.8639 74.3385 22.1262 73.8664 21.1672C73.409 20.1934 73.1803 19.0648 73.1803 17.7811ZM82.1213 17.7811C82.1213 16.9844 81.9 16.3574 81.4574 15.9C81.0295 15.4426 80.4984 15.2139 79.8639 15.2139C79.2147 15.2139 78.6762 15.4426 78.2484 15.9C77.8205 16.3426 77.6065 16.9697 77.6065 17.7811C77.6065 18.5779 77.8205 19.2123 78.2484 19.6844C78.6762 20.1418 79.2147 20.3705 79.8639 20.3705C80.4984 20.3705 81.0295 20.1418 81.4574 19.6844C81.9 19.227 82.1213 18.5926 82.1213 17.7811ZM91.2545 24.177C90.4873 24.177 89.8677 23.9705 89.3955 23.5574C88.9382 23.1295 88.7095 22.591 88.7095 21.9418C88.7095 21.2926 88.9382 20.7541 89.3955 20.3262C89.8677 19.8984 90.4873 19.6844 91.2545 19.6844C92.007 19.6844 92.6119 19.8984 93.0693 20.3262C93.5414 20.7541 93.7775 21.2926 93.7775 21.9418C93.7775 22.5762 93.5414 23.1074 93.0693 23.5352C92.6119 23.9631 92.007 24.177 91.2545 24.177ZM95.3218 17.7811C95.3218 16.4975 95.5505 15.3762 96.0079 14.4172C96.48 13.4582 97.1145 12.7205 97.9112 12.2041C98.7227 11.6877 99.6227 11.4295 100.611 11.4295C101.467 11.4295 102.205 11.5992 102.824 11.9385C103.444 12.2779 103.923 12.7352 104.263 13.3107V11.5844H108.601V24H104.263V22.2738C103.923 22.8492 103.437 23.3066 102.802 23.6459C102.182 23.9852 101.452 24.1549 100.611 24.1549C99.6227 24.1549 98.7227 23.8967 97.9112 23.3803C97.1145 22.8639 96.48 22.1262 96.0079 21.1672C95.5505 20.1934 95.3218 19.0648 95.3218 17.7811ZM104.263 17.7811C104.263 16.9844 104.042 16.3574 103.599 15.9C103.171 15.4426 102.64 15.2139 102.005 15.2139C101.356 15.2139 100.818 15.4426 100.39 15.9C99.962 16.3426 99.7481 16.9697 99.7481 17.7811C99.7481 18.5779 99.962 19.2123 100.39 19.6844C100.818 20.1418 101.356 20.3705 102.005 20.3705C102.64 20.3705 103.171 20.1418 103.599 19.6844C104.042 19.227 104.263 18.5926 104.263 17.7811ZM113.485 10.4336C112.717 10.4336 112.098 10.227 111.626 9.81393C111.168 9.38607 110.94 8.85492 110.94 8.22049C110.94 7.57131 111.168 7.03279 111.626 6.60492C112.098 6.17705 112.717 5.96311 113.485 5.96311C114.237 5.96311 114.842 6.17705 115.299 6.60492C115.771 7.03279 116.008 7.57131 116.008 8.22049C116.008 8.85492 115.771 9.38607 115.299 9.81393C114.842 10.227 114.237 10.4336 113.485 10.4336ZM115.631 11.5844V24H111.294V11.5844H115.631Z" fill="url(#paint3_linear_1138_257)"/>
<defs>
<linearGradient id="paint0_linear_1138_257" x1="20.0983" y1="0.001953" x2="20.0983" y2="58.1844" gradientUnits="userSpaceOnUse">
<stop stop-color="#7B61FF"/>
<stop offset="1" stop-color="#A6FF7C"/>
</linearGradient>
<linearGradient id="paint1_linear_1138_257" x1="20.1002" y1="25.7569" x2="20.0976" y2="43.1571" gradientUnits="userSpaceOnUse">
<stop stop-color="#A6FF7C"/>
<stop offset="1" stop-color="#64994A"/>
</linearGradient>
<linearGradient id="paint2_linear_1138_257" x1="25.8086" y1="28.0312" x2="26.0212" y2="20.3295" gradientUnits="userSpaceOnUse">
<stop stop-color="#A6FF7C"/>
<stop offset="1" stop-color="#64994A"/>
</linearGradient>
<linearGradient id="paint3_linear_1138_257" x1="47.7695" y1="11.5" x2="145.27" y2="42" gradientUnits="userSpaceOnUse">
<stop stop-color="#7B61FF"/>
<stop offset="1" stop-color="#97E771"/>
</linearGradient>
</defs>
</svg>
