<svg width="425" height="150" viewBox="0 0 425 150" fill="none" xmlns="http://www.w3.org/2000/svg">
<path d="M145.375 94.3057L164.763 45.6631H175.881L195.13 94.3057H181.44L173.101 71.7216C172.638 70.4708 172.221 69.3126 171.851 68.2471C171.48 67.1816 171.133 66.1393 170.808 65.1201C170.484 64.1009 170.16 63.0586 169.835 61.9931C169.557 60.9276 169.303 59.7694 169.071 58.5186L171.295 58.4491C171.017 59.7926 170.716 60.9971 170.391 62.0626C170.113 63.1281 169.812 64.1473 169.488 65.1201C169.164 66.093 168.793 67.1121 168.376 68.1776C168.005 69.2431 167.589 70.4245 167.125 71.7216L158.787 94.3057H145.375ZM154.826 86.2449L158.926 76.5164H181.44L185.262 86.2449H154.826ZM211.805 95.0006C207.96 95.0006 204.578 94.3983 201.659 93.1938C198.741 91.9893 196.471 90.4374 194.849 88.538L202.424 82.006C203.906 83.3495 205.574 84.3455 207.427 84.9941C209.326 85.6426 210.994 85.9669 212.43 85.9669C212.94 85.9669 213.403 85.9206 213.82 85.828C214.237 85.7353 214.561 85.5963 214.793 85.411C215.071 85.1794 215.279 84.9478 215.418 84.7161C215.603 84.4382 215.696 84.137 215.696 83.8128C215.696 83.0252 215.302 82.423 214.515 82.006C214.098 81.8207 213.403 81.5891 212.43 81.3111C211.504 80.9869 210.253 80.6394 208.678 80.2688C206.732 79.7592 204.995 79.157 203.466 78.4621C201.937 77.7209 200.64 76.8638 199.575 75.891C198.555 74.9181 197.745 73.8063 197.142 72.5555C196.586 71.2583 196.309 69.8454 196.309 68.3166C196.309 66.4636 196.725 64.819 197.559 63.3829C198.393 61.9468 199.551 60.7191 201.034 59.6999C202.516 58.6344 204.184 57.8469 206.037 57.3373C207.89 56.7814 209.789 56.5034 211.735 56.5034C213.912 56.5034 215.951 56.735 217.85 57.1983C219.796 57.6152 221.603 58.2407 223.27 59.0745C224.984 59.8621 226.513 60.8349 227.857 61.9931L221.186 69.359C220.398 68.6641 219.472 68.0155 218.406 67.4133C217.387 66.811 216.321 66.3246 215.21 65.954C214.098 65.537 213.055 65.3286 212.083 65.3286C211.48 65.3286 210.971 65.3749 210.554 65.4676C210.137 65.5602 209.789 65.6992 209.511 65.8845C209.234 66.0698 209.025 66.3014 208.886 66.5794C208.747 66.8573 208.678 67.1585 208.678 67.4827C208.678 67.8997 208.793 68.2935 209.025 68.6641C209.257 69.0347 209.627 69.3358 210.137 69.5674C210.554 69.7991 211.249 70.1002 212.222 70.4708C213.241 70.7951 214.7 71.212 216.599 71.7216C218.73 72.3238 220.583 73.0187 222.159 73.8063C223.734 74.5938 225.008 75.4972 225.98 76.5164C226.675 77.3039 227.208 78.1841 227.579 79.157C227.949 80.0835 228.135 81.1258 228.135 82.284C228.135 84.7393 227.417 86.9398 225.98 88.8855C224.591 90.7849 222.668 92.2905 220.213 93.4023C217.758 94.4678 214.955 95.0006 211.805 95.0006ZM236.441 94.3057V47.8867H249.366V94.3057H236.441ZM230.326 68.2471V57.2678H255.829V68.2471H230.326ZM262.142 94.3057V57.2678H274.233L274.928 69.4285L272.218 67.3438C272.821 65.3054 273.747 63.4755 274.998 61.8541C276.295 60.1864 277.847 58.8892 279.654 57.9627C281.46 56.9898 283.36 56.5034 285.352 56.5034C286.186 56.5034 286.973 56.5729 287.714 56.7119C288.456 56.8045 289.151 56.9435 289.799 57.1288L286.255 71.4436C285.746 71.1194 285.027 70.8414 284.101 70.6098C283.174 70.3318 282.178 70.1928 281.113 70.1928C280.186 70.1928 279.353 70.355 278.611 70.6793C277.87 70.9572 277.245 71.3742 276.735 71.9301C276.225 72.486 275.832 73.1577 275.554 73.9453C275.276 74.6865 275.137 75.5667 275.137 76.5859V94.3057H262.142ZM295.714 94.3057V57.2678H308.639V94.3057H295.714ZM302.177 50.2494C299.814 50.2494 297.984 49.7166 296.687 48.6511C295.39 47.5393 294.741 45.9874 294.741 43.9953C294.741 42.1423 295.39 40.6367 296.687 39.4785C298.031 38.274 299.86 37.6718 302.177 37.6718C304.493 37.6718 306.3 38.2277 307.597 39.3395C308.94 40.405 309.612 41.957 309.612 43.9953C309.612 45.8484 308.94 47.354 307.597 48.5121C306.253 49.6703 304.447 50.2494 302.177 50.2494ZM340.846 94.3057L334.731 83.9517L329.936 77.2113L315.76 57.2678H331.048L336.746 66.8573L341.958 74.0148L356.064 94.3057H340.846ZM315.204 94.3057L330.283 72.6945L337.093 80.7552L330.422 94.3057H315.204ZM340.568 78.9485L333.827 70.8877L340.359 57.2678H355.578L340.568 78.9485ZM366.735 95.07C364.65 95.07 363.029 94.491 361.87 93.3328C360.759 92.1747 360.203 90.5301 360.203 88.3991C360.203 86.4534 360.805 84.8551 362.009 83.6043C363.214 82.3535 364.789 81.7281 366.735 81.7281C368.773 81.7281 370.371 82.3072 371.53 83.4653C372.688 84.6235 373.267 86.2681 373.267 88.3991C373.267 90.3448 372.665 91.943 371.46 93.1938C370.256 94.4446 368.68 95.07 366.735 95.07Z" fill="white"/>
<path fill-rule="evenodd" clip-rule="evenodd" d="M57.5485 73.994V38.1946C57.5485 30.5239 63.4725 24.3057 70.7801 24.3057V60.4168C70.7801 68.0874 64.8561 74.3057 57.5485 74.3057V74.2875C56.9757 74.2876 56.3888 74.292 55.7918 74.2964C53.4147 74.314 50.8788 74.3328 48.4485 74.086C45.4041 73.7769 42.504 73.0497 40.2677 71.3662C38.0249 69.6778 36.4643 67.0385 36.082 62.9413C35.7004 58.8507 36.4926 53.3051 38.947 45.7884C38.9662 45.7295 39.0204 45.6913 39.0796 45.6948C39.1388 45.6983 39.1885 45.7427 39.2013 45.8034C43.2415 64.9885 54.9278 72.8338 57.5485 73.994ZM39.0782 46.4888C42.822 63.3522 52.4585 71.3331 56.3425 73.6618C51.1374 72.0125 46.3901 68.2358 43.1447 63.4484C39.7618 58.4581 38.0189 52.3823 39.0782 46.4888ZM36.3454 62.9142C36.0565 59.8182 36.4485 55.8576 37.7534 50.7928C36.4525 58.5221 38.2306 64.0833 41.5676 67.8514C44.7341 71.4272 49.2883 73.3693 53.8941 74.0279C52.0971 74.0278 50.2575 73.9906 48.474 73.8095C45.4467 73.5022 42.602 72.7817 40.422 71.1405C38.2484 69.5042 36.7212 66.9417 36.3454 62.9142ZM41.7614 67.6623C38.1094 63.5385 36.33 57.1947 38.5961 48.0555C38.0747 53.5188 39.8217 59.0256 42.9291 63.6094C46.2431 68.4982 51.1122 72.3489 56.4531 73.9861C51.0745 73.7554 45.4509 71.8286 41.7614 67.6623Z" fill="white"/>
<path d="M70.7901 89.5834H36.3879C29.0803 89.5834 23.1562 83.3652 23.1562 75.6946H57.5585C64.8661 75.6946 70.7901 81.9128 70.7901 89.5834Z" fill="white"/>
<path fill-rule="evenodd" clip-rule="evenodd" d="M85.3549 76.0018V111.806C85.3549 119.476 79.4309 125.695 72.1233 125.695V89.5835C72.1233 81.9128 78.0473 75.6946 85.3549 75.6946V75.7127C85.9308 75.7127 86.5211 75.7083 87.1216 75.7038C89.4987 75.6862 92.0346 75.6674 94.4649 75.9142C97.5093 76.2233 100.409 76.9505 102.646 78.634C104.888 80.3224 106.449 82.9617 106.831 87.0589C107.213 91.1496 106.421 96.6951 103.966 104.212C103.947 104.271 103.893 104.309 103.834 104.305C103.775 104.302 103.725 104.258 103.712 104.197C99.6667 84.9871 87.9557 77.1463 85.3549 76.0018ZM103.835 103.511C100.091 86.648 90.4549 78.6671 86.5709 76.3384C91.776 77.9877 96.5233 81.7644 99.7687 86.5518C103.152 91.5421 104.895 97.6179 103.835 103.511ZM106.568 87.086C106.857 90.182 106.465 94.1426 105.16 99.2074C106.461 91.4781 104.683 85.9169 101.346 82.1488C98.1793 78.5731 93.6251 76.631 89.0192 75.9724C90.8163 75.9724 92.6559 76.0096 94.4394 76.1907C97.4667 76.4981 100.311 77.2185 102.491 78.8597C104.665 80.496 106.192 83.0585 106.568 87.086ZM101.152 82.3379C104.804 86.4617 106.583 92.8055 104.317 101.945C104.839 96.4815 103.092 90.9746 99.9843 86.3908C96.6702 81.502 91.8012 77.6513 86.4603 76.0141C91.8388 76.2449 97.4625 78.1717 101.152 82.3379Z" fill="white"/>
<path d="M72.1133 60.4167H106.516C113.823 60.4167 119.747 66.635 119.747 74.3056H85.3449C78.0373 74.3056 72.1133 68.0874 72.1133 60.4167Z" fill="white"/>
</svg>
