<svg width="173" height="29" viewBox="0 0 173 29" fill="none" xmlns="http://www.w3.org/2000/svg">
<g filter="url(#filter0_d_1283_14576)">
<mask id="path-1-inside-1_1283_14576" fill="white">
<path fill-rule="evenodd" clip-rule="evenodd" d="M20.9048 25.0478H10.5348C8.99349 25.0478 7.744 23.7984 7.744 22.257V17.3732H2.86054C1.83299 17.3732 1 16.5402 1 15.5127V12.7219C1 11.6943 1.83299 10.8613 2.86054 10.8613H7.744V5.97734C7.744 4.43602 8.99349 3.18654 10.5348 3.18654H20.8281C21.0346 2.38402 21.7631 1.79102 22.6301 1.79102H22.8626C23.8902 1.79102 24.7232 2.62401 24.7232 3.65155V6.44238H31.0018C31.7724 6.44238 32.3972 7.06713 32.3972 7.83779V8.76806C32.3972 9.53871 31.7724 10.1635 31.0018 10.1635H24.7232V17.1406H31.0018C31.7724 17.1406 32.3972 17.7654 32.3972 18.536V19.0012C32.3972 20.0287 31.5642 20.8617 30.5366 20.8617H24.7232V24.35C24.7232 25.3776 23.8902 26.2106 22.8626 26.2106H22.6301C21.8493 26.2106 21.1809 25.7296 20.9048 25.0478Z"/>
</mask>
<path fill-rule="evenodd" clip-rule="evenodd" d="M20.9048 25.0478H10.5348C8.99349 25.0478 7.744 23.7984 7.744 22.257V17.3732H2.86054C1.83299 17.3732 1 16.5402 1 15.5127V12.7219C1 11.6943 1.83299 10.8613 2.86054 10.8613H7.744V5.97734C7.744 4.43602 8.99349 3.18654 10.5348 3.18654H20.8281C21.0346 2.38402 21.7631 1.79102 22.6301 1.79102H22.8626C23.8902 1.79102 24.7232 2.62401 24.7232 3.65155V6.44238H31.0018C31.7724 6.44238 32.3972 7.06713 32.3972 7.83779V8.76806C32.3972 9.53871 31.7724 10.1635 31.0018 10.1635H24.7232V17.1406H31.0018C31.7724 17.1406 32.3972 17.7654 32.3972 18.536V19.0012C32.3972 20.0287 31.5642 20.8617 30.5366 20.8617H24.7232V24.35C24.7232 25.3776 23.8902 26.2106 22.8626 26.2106H22.6301C21.8493 26.2106 21.1809 25.7296 20.9048 25.0478Z" fill="#AAAAAA"/>
<path d="M20.9048 25.0478L22.4138 24.4369L22.002 23.4199H20.9048V25.0478ZM7.744 17.3732H9.37197V15.7452H7.744V17.3732ZM7.744 10.8613V12.4893H9.37197V10.8613H7.744ZM20.8281 3.18654V4.81451H22.0902L22.4047 3.59222L20.8281 3.18654ZM24.7232 6.44238H23.0952V8.07035H24.7232V6.44238ZM24.7232 10.1635V8.53549H23.0952V10.1635H24.7232ZM24.7232 17.1406H23.0952V18.7686H24.7232V17.1406ZM24.7232 20.8617V19.2337H23.0952V20.8617H24.7232ZM10.5348 26.6758H20.9048V23.4199H10.5348V26.6758ZM6.11603 22.257C6.11603 24.6975 8.09439 26.6758 10.5348 26.6758V23.4199C9.89259 23.4199 9.37197 22.8993 9.37197 22.257H6.11603ZM6.11603 17.3732V22.257H9.37197V17.3732H6.11603ZM2.86054 19.0012H7.744V15.7452H2.86054V19.0012ZM-0.62797 15.5127C-0.62797 17.4393 0.933886 19.0012 2.86054 19.0012V15.7452C2.73209 15.7452 2.62797 15.6411 2.62797 15.5127H-0.62797ZM-0.62797 12.7219V15.5127H2.62797V12.7219H-0.62797ZM2.86054 9.23336C0.93389 9.23336 -0.62797 10.7952 -0.62797 12.7219H2.62797C2.62797 12.5934 2.73209 12.4893 2.86054 12.4893V9.23336ZM7.744 9.23336H2.86054V12.4893H7.744V9.23336ZM6.11603 5.97734V10.8613H9.37197V5.97734H6.11603ZM10.5348 1.55857C8.09439 1.55857 6.11603 3.53692 6.11603 5.97734H9.37197C9.37197 5.33513 9.89259 4.81451 10.5348 4.81451V1.55857ZM20.8281 1.55857H10.5348V4.81451H20.8281V1.55857ZM22.6301 0.163046C21.0023 0.163046 19.6386 1.27648 19.2515 2.78086L22.4047 3.59222C22.4306 3.49155 22.5239 3.41899 22.6301 3.41899V0.163046ZM22.8626 0.163046H22.6301V3.41899H22.8626V0.163046ZM26.3511 3.65155C26.3511 1.7249 24.7893 0.163046 22.8626 0.163046V3.41899C22.9911 3.41899 23.0952 3.52311 23.0952 3.65155H26.3511ZM26.3511 6.44238V3.65155H23.0952V6.44238H26.3511ZM31.0018 4.81441H24.7232V8.07035H31.0018V4.81441ZM34.0251 7.83779C34.0251 6.16802 32.6715 4.81441 31.0018 4.81441V8.07035C30.8733 8.07035 30.7692 7.96623 30.7692 7.83779H34.0251ZM34.0251 8.76806V7.83779H30.7692V8.76806H34.0251ZM31.0018 11.7914C32.6715 11.7914 34.0251 10.4378 34.0251 8.76806H30.7692C30.7692 8.63961 30.8733 8.53549 31.0018 8.53549V11.7914ZM24.7232 11.7914H31.0018V8.53549H24.7232V11.7914ZM26.3511 17.1406V10.1635H23.0952V17.1406H26.3511ZM24.7232 18.7686H31.0018V15.5127H24.7232V18.7686ZM31.0018 18.7686C30.8733 18.7686 30.7692 18.6645 30.7692 18.536H34.0251C34.0251 16.8663 32.6715 15.5127 31.0018 15.5127V18.7686ZM30.7692 18.536V19.0012H34.0251V18.536H30.7692ZM30.7692 19.0012C30.7692 19.1296 30.6651 19.2337 30.5366 19.2337V22.4897C32.4633 22.4897 34.0251 20.9278 34.0251 19.0012H30.7692ZM30.5366 19.2337H24.7232V22.4897H30.5366V19.2337ZM26.3511 24.35V20.8617H23.0952V24.35H26.3511ZM22.8626 27.8385C24.7893 27.8385 26.3511 26.2767 26.3511 24.35H23.0952C23.0952 24.4785 22.9911 24.5826 22.8626 24.5826V27.8385ZM22.6301 27.8385H22.8626V24.5826H22.6301V27.8385ZM19.3958 25.6588C19.9122 26.9341 21.1636 27.8385 22.6301 27.8385V24.5826C22.535 24.5826 22.4495 24.5251 22.4138 24.4369L19.3958 25.6588Z" fill="#168FE9" mask="url(#path-1-inside-1_1283_14576)"/>
</g>
<path d="M13.3846 6.03711C13.4923 5.84705 13.4262 5.60223 13.2212 5.52656C12.8953 5.40622 12.546 5.35627 12.1965 5.38195C11.7148 5.41734 11.2544 5.59476 10.8736 5.89179C10.4928 6.18882 10.2085 6.59211 10.0569 7.05066C9.94688 7.3834 9.91024 7.73439 9.94758 8.0798C9.97106 8.29701 10.1924 8.42076 10.403 8.36255V8.36255C10.6136 8.30434 10.7319 8.08531 10.7253 7.86694C10.7196 7.67527 10.7472 7.48303 10.8081 7.29906C10.9106 6.98907 11.1027 6.71644 11.3602 6.51565C11.6176 6.31485 11.9288 6.19491 12.2544 6.17099C12.4477 6.15679 12.6409 6.17679 12.8254 6.22906C13.0356 6.28861 13.2768 6.22717 13.3846 6.03711V6.03711Z" fill="white"/>
<path d="M10.6499 19.6537C10.4514 19.5624 10.213 19.6488 10.1549 19.8594C10.0624 20.1943 10.042 20.5466 10.097 20.8927C10.1728 21.3697 10.3883 21.8135 10.7164 22.168C11.0444 22.5225 11.4701 22.7718 11.9398 22.8843C12.2806 22.966 12.6335 22.9729 12.9745 22.9067C13.189 22.865 13.2937 22.634 13.218 22.4291V22.4291C13.1422 22.2241 12.914 22.1246 12.697 22.1496C12.5065 22.1714 12.3126 22.1601 12.1241 22.1149C11.8066 22.0389 11.5188 21.8703 11.2971 21.6307C11.0753 21.3911 10.9296 21.091 10.8784 20.7686C10.848 20.5772 10.8516 20.383 10.8882 20.1948C10.9299 19.9803 10.8483 19.7451 10.6499 19.6537V19.6537Z" fill="white"/>
<path d="M43.3186 14.3021C44.0752 14.4633 44.683 14.8416 45.142 15.437C45.6009 16.02 45.8304 16.6898 45.8304 17.4464C45.8304 18.5379 45.4458 19.4061 44.6768 20.0511C43.9202 20.6837 42.8597 21 41.4953 21H35.4113V7.93903H41.2906C42.6178 7.93903 43.6535 8.24292 44.3977 8.85069C45.1544 9.45847 45.5327 10.2833 45.5327 11.3252C45.5327 12.0942 45.328 12.733 44.9187 13.2416C44.5218 13.7501 43.9884 14.1036 43.3186 14.3021ZM38.5929 13.223H40.6767C41.1976 13.223 41.5945 13.1113 41.8674 12.8881C42.1527 12.6524 42.2953 12.3113 42.2953 11.8648C42.2953 11.4182 42.1527 11.0771 41.8674 10.8415C41.5945 10.6058 41.1976 10.488 40.6767 10.488H38.5929V13.223ZM40.9371 18.4325C41.4705 18.4325 41.8798 18.3146 42.1651 18.079C42.4628 17.8309 42.6116 17.4774 42.6116 17.0185C42.6116 16.5595 42.4566 16.1998 42.1465 15.9393C41.8488 15.6789 41.4333 15.5486 40.8999 15.5486H38.5929V18.4325H40.9371ZM57.0713 7.93903V10.488H53.6107V21H50.4292V10.488H46.9686V7.93903H57.0713ZM58.1285 14.4509C58.1285 13.1609 58.4076 12.0136 58.9657 11.0089C59.5239 9.99182 60.2991 9.2042 61.2914 8.64603C62.2961 8.07547 63.431 7.79019 64.6962 7.79019C66.2466 7.79019 67.5738 8.1995 68.6777 9.01814C69.7817 9.83678 70.5197 10.9531 70.8918 12.3671H67.394C67.1335 11.8214 66.7614 11.4058 66.2777 11.1205C65.8063 10.8353 65.2668 10.6926 64.659 10.6926C63.6791 10.6926 62.8853 11.0337 62.2775 11.7159C61.6697 12.3981 61.3658 13.3098 61.3658 14.4509C61.3658 15.592 61.6697 16.5037 62.2775 17.1859C62.8853 17.8681 63.6791 18.2092 64.659 18.2092C65.2668 18.2092 65.8063 18.0666 66.2777 17.7813C66.7614 17.496 67.1335 17.0805 67.394 16.5347H70.8918C70.5197 17.9487 69.7817 19.065 68.6777 19.8837C67.5738 20.6899 66.2466 21.093 64.6962 21.093C63.431 21.093 62.2961 20.8139 61.2914 20.2558C60.2991 19.6852 59.5239 18.8976 58.9657 17.8929C58.4076 16.8882 58.1285 15.7409 58.1285 14.4509Z" fill="#168FE9"/>
<rect x="74.1191" y="3.7793" width="66.4421" height="20.4421" rx="0.930268" fill="#168FE9"/>
<path d="M96.9662 7.43903L93.5614 20.5H89.7101L87.6263 11.9043L85.468 20.5H81.6167L78.305 7.43903H81.7098L83.5889 16.9464L85.9146 7.43903H89.4124L91.645 16.9464L93.5428 7.43903H96.9662ZM101.743 7.43903V20.5H98.5617V7.43903H101.743ZM110.71 20.5L107.993 15.5696H107.23V20.5H104.049V7.43903H109.389C110.418 7.43903 111.293 7.61888 112.012 7.97859C112.744 8.33829 113.29 8.83443 113.649 9.46701C114.009 10.0872 114.189 10.7818 114.189 11.5508C114.189 12.4191 113.941 13.1943 113.445 13.8765C112.961 14.5587 112.241 15.0424 111.286 15.3277L114.3 20.5H110.71ZM107.23 13.3183H109.203C109.786 13.3183 110.22 13.1757 110.505 12.8904C110.803 12.6051 110.951 12.202 110.951 11.6811C110.951 11.1849 110.803 10.7942 110.505 10.5089C110.22 10.2236 109.786 10.081 109.203 10.081H107.23V13.3183ZM119.367 9.98797V12.6299H123.628V15.0858H119.367V17.9511H124.186V20.5H116.186V7.43903H124.186V9.98797H119.367ZM130.978 20.6302C130.022 20.6302 129.167 20.4752 128.41 20.1651C127.653 19.855 127.046 19.3961 126.587 18.7883C126.14 18.1805 125.904 17.4487 125.88 16.5929H129.266C129.315 17.0766 129.483 17.4487 129.768 17.7092C130.053 17.9573 130.426 18.0813 130.884 18.0813C131.356 18.0813 131.728 17.9759 132.001 17.765C132.274 17.5417 132.41 17.2379 132.41 16.8533C132.41 16.5309 132.298 16.2642 132.075 16.0533C131.864 15.8425 131.598 15.6688 131.275 15.5324C130.965 15.3959 130.519 15.2409 129.936 15.0672C129.092 14.8068 128.404 14.5463 127.87 14.2858C127.337 14.0253 126.878 13.6408 126.494 13.1323C126.109 12.6237 125.917 11.9601 125.917 11.1415C125.917 9.92595 126.357 8.97707 127.238 8.29488C128.118 7.60028 129.266 7.25298 130.68 7.25298C132.119 7.25298 133.278 7.60028 134.159 8.29488C135.04 8.97707 135.511 9.93215 135.573 11.1601H132.131C132.106 10.7384 131.951 10.4097 131.666 10.174C131.381 9.92595 131.015 9.80191 130.568 9.80191C130.184 9.80191 129.874 9.90734 129.638 10.1182C129.402 10.3167 129.284 10.6081 129.284 10.9927C129.284 11.4144 129.483 11.7431 129.88 11.9787C130.277 12.2144 130.897 12.4687 131.74 12.7416C132.584 13.0268 133.266 13.2997 133.787 13.5602C134.32 13.8207 134.779 14.199 135.164 14.6951C135.548 15.1913 135.74 15.8301 135.74 16.6115C135.74 17.3557 135.548 18.0317 135.164 18.6395C134.792 19.2472 134.246 19.731 133.526 20.0907C132.807 20.4504 131.957 20.6302 130.978 20.6302Z" fill="white"/>
<g filter="url(#filter1_d_1283_14576)">
<mask id="path-8-inside-2_1283_14576" fill="white">
<path fill-rule="evenodd" clip-rule="evenodd" d="M142.422 3.65155C142.422 2.62401 143.255 1.79102 144.282 1.79102H144.515C145.382 1.79102 146.11 2.38401 146.317 3.18652H159.632C161.173 3.18652 162.423 4.43601 162.423 5.97733V10.3955H167.77C168.798 10.3955 169.631 11.2285 169.631 12.256V15.0469C169.631 16.0744 168.798 16.9074 167.77 16.9074H162.423V22.257C162.423 23.7983 161.173 25.0478 159.632 25.0478H146.24C145.964 25.7296 145.296 26.2106 144.515 26.2106H144.282C143.255 26.2106 142.422 25.3776 142.422 24.35V3.65155Z"/>
</mask>
<path fill-rule="evenodd" clip-rule="evenodd" d="M142.422 3.65155C142.422 2.62401 143.255 1.79102 144.282 1.79102H144.515C145.382 1.79102 146.11 2.38401 146.317 3.18652H159.632C161.173 3.18652 162.423 4.43601 162.423 5.97733V10.3955H167.77C168.798 10.3955 169.631 11.2285 169.631 12.256V15.0469C169.631 16.0744 168.798 16.9074 167.77 16.9074H162.423V22.257C162.423 23.7983 161.173 25.0478 159.632 25.0478H146.24C145.964 25.7296 145.296 26.2106 144.515 26.2106H144.282C143.255 26.2106 142.422 25.3776 142.422 24.35V3.65155Z" fill="#AAAAAA"/>
<path d="M146.317 3.18652L144.74 3.59222L145.055 4.81449H146.317V3.18652ZM162.423 10.3955H160.795V12.0235H162.423V10.3955ZM162.423 16.9074V15.2794H160.795V16.9074H162.423ZM146.24 25.0478V23.4199H145.143L144.731 24.4369L146.24 25.0478ZM144.282 0.163046C142.356 0.163046 140.794 1.7249 140.794 3.65155H144.05C144.05 3.52311 144.154 3.41899 144.282 3.41899V0.163046ZM144.515 0.163046H144.282V3.41899H144.515V0.163046ZM147.894 2.78083C147.506 1.27646 146.143 0.163046 144.515 0.163046V3.41899C144.621 3.41899 144.714 3.49155 144.74 3.59222L147.894 2.78083ZM159.632 1.55855H146.317V4.81449H159.632V1.55855ZM164.051 5.97733C164.051 3.53691 162.072 1.55855 159.632 1.55855V4.81449C160.274 4.81449 160.795 5.33511 160.795 5.97733H164.051ZM164.051 10.3955V5.97733H160.795V10.3955H164.051ZM162.423 12.0235H167.77V8.76754H162.423V12.0235ZM167.77 12.0235C167.899 12.0235 168.003 12.1276 168.003 12.256H171.259C171.259 10.3294 169.697 8.76754 167.77 8.76754V12.0235ZM168.003 12.256V15.0469H171.259V12.256H168.003ZM168.003 15.0469C168.003 15.1753 167.899 15.2794 167.77 15.2794V18.5354C169.697 18.5354 171.259 16.9735 171.259 15.0469H168.003ZM167.77 15.2794H162.423V18.5354H167.77V15.2794ZM164.051 22.257V16.9074H160.795V22.257H164.051ZM159.632 26.6758C162.072 26.6758 164.051 24.6975 164.051 22.257H160.795C160.795 22.8992 160.274 23.4199 159.632 23.4199V26.6758ZM146.24 26.6758H159.632V23.4199H146.24V26.6758ZM144.515 27.8385C145.981 27.8385 147.233 26.9341 147.749 25.6588L144.731 24.4369C144.696 24.5251 144.61 24.5826 144.515 24.5826V27.8385ZM144.282 27.8385H144.515V24.5826H144.282V27.8385ZM140.794 24.35C140.794 26.2767 142.356 27.8385 144.282 27.8385V24.5826C144.154 24.5826 144.05 24.4785 144.05 24.35H140.794ZM140.794 3.65155V24.35H144.05V3.65155H140.794Z" fill="white" mask="url(#path-8-inside-2_1283_14576)"/>
</g>
<rect x="145.211" y="6.55762" width="1.16284" height="14.8843" rx="0.581418" fill="white"/>
<defs>
<filter id="filter0_d_1283_14576" x="0.0697315" y="1.79102" width="33.257" height="26.2805" filterUnits="userSpaceOnUse" color-interpolation-filters="sRGB">
<feFlood flood-opacity="0" result="BackgroundImageFix"/>
<feColorMatrix in="SourceAlpha" type="matrix" values="0 0 0 0 0 0 0 0 0 0 0 0 0 0 0 0 0 0 127 0" result="hardAlpha"/>
<feOffset dy="0.930268"/>
<feGaussianBlur stdDeviation="0.465134"/>
<feComposite in2="hardAlpha" operator="out"/>
<feColorMatrix type="matrix" values="0 0 0 0 0 0 0 0 0 0 0 0 0 0 0 0 0 0 0.25 0"/>
<feBlend mode="normal" in2="BackgroundImageFix" result="effect1_dropShadow_1283_14576"/>
<feBlend mode="normal" in="SourceGraphic" in2="effect1_dropShadow_1283_14576" result="shape"/>
</filter>
<filter id="filter1_d_1283_14576" x="141.492" y="1.79102" width="29.0695" height="26.2805" filterUnits="userSpaceOnUse" color-interpolation-filters="sRGB">
<feFlood flood-opacity="0" result="BackgroundImageFix"/>
<feColorMatrix in="SourceAlpha" type="matrix" values="0 0 0 0 0 0 0 0 0 0 0 0 0 0 0 0 0 0 127 0" result="hardAlpha"/>
<feOffset dy="0.930268"/>
<feGaussianBlur stdDeviation="0.465134"/>
<feComposite in2="hardAlpha" operator="out"/>
<feColorMatrix type="matrix" values="0 0 0 0 0 0 0 0 0 0 0 0 0 0 0 0 0 0 0.25 0"/>
<feBlend mode="normal" in2="BackgroundImageFix" result="effect1_dropShadow_1283_14576"/>
<feBlend mode="normal" in="SourceGraphic" in2="effect1_dropShadow_1283_14576" result="shape"/>
</filter>
</defs>
</svg>
