<svg width="123" height="48" viewBox="0 0 123 48" fill="none" xmlns="http://www.w3.org/2000/svg">
<g clip-path="url(#clip0_3619_63245)">
<path d="M35.9061 25.2895C36.1078 25.0858 36.2702 25.0816 36.4718 25.2787C36.8665 25.6646 37.2598 26.0519 37.6528 26.4394C38.7694 27.5405 39.8829 28.6446 41.0028 29.7424C41.6814 30.4075 42.7816 30.444 43.4941 29.8139C43.8742 29.4777 44.2237 29.1069 44.5855 28.7503C45.9458 27.4094 47.3068 26.0692 48.6644 24.7256C48.9849 24.4084 49.133 24.0135 49.1395 23.5642C49.1367 23.1745 48.978 22.7196 48.7772 22.5219C48.1297 21.8844 47.4825 21.2467 46.8354 20.609C45.7464 19.5357 44.6572 18.4625 43.5684 17.389C42.8463 16.6771 41.6913 16.6693 40.9666 17.3762C40.4281 17.9014 39.8942 18.4314 39.3585 18.9595C38.3913 19.913 37.4245 20.867 36.4568 21.8201C36.2834 21.9909 36.1071 21.9932 35.9322 21.8241C35.7109 21.6102 35.494 21.3917 35.2747 21.1759C35.0448 20.9496 35.043 20.8112 35.2722 20.5837C36.4061 19.4585 37.5405 18.3338 38.6747 17.2088C39.7881 16.1044 40.9014 15 42.0149 13.8957C42.2083 13.704 42.3702 13.6954 42.5474 13.8691C43.5799 14.8816 46.0954 17.3783 47.1278 18.3908C47.8608 17.6579 47.7906 17.728 48.6067 16.912C47.661 15.9786 44.5053 12.8299 43.5577 11.8986C43.0146 11.3647 42.2443 11.2471 41.6016 11.5574C41.8743 10.9508 41.777 10.2188 41.2935 9.7043C40.9323 9.31993 36.5398 4.9305 36.1692 4.55501C35.1719 5.55232 35.7385 4.98574 34.7254 5.99885C35.8828 7.16961 38.0425 9.34063 39.2001 10.5112C39.4631 10.777 39.464 10.9131 39.2054 11.1734C38.4341 11.9498 37.6632 12.7264 36.8909 13.5017C35.4324 14.9659 33.9732 16.4294 32.5139 17.8928C32.3181 18.0891 32.1595 18.0882 31.958 17.8914C31.7343 17.6729 31.5116 17.4534 31.2895 17.2334C31.0858 17.0317 31.0817 16.8693 31.2788 16.6677C31.6646 16.273 32.0519 15.8798 32.4394 15.4868C33.5405 14.3702 34.6447 13.2566 35.7424 12.1367C36.4076 11.4581 36.4441 10.3579 35.8139 9.6454C35.4778 9.26537 35.107 8.91588 34.7503 8.55408C33.4094 7.19377 32.0693 5.83274 30.7257 4.47512C30.4084 4.15459 30.0135 4.00657 29.5642 4C29.1745 4.0028 28.7196 4.16155 28.5219 4.36236C27.8844 5.00981 27.2467 5.657 26.609 6.30415C25.5357 7.39321 24.4625 8.48232 23.3891 9.57112C22.6771 10.2932 22.6693 11.4483 23.3762 12.1729C23.9015 12.7114 24.4314 13.2453 24.9595 13.781C25.913 14.7482 26.867 15.7151 27.8201 16.6827C27.9909 16.8561 27.9932 17.0324 27.8241 17.2074C27.6102 17.4286 27.3918 17.6455 27.1759 17.8649C26.9496 18.0947 26.8112 18.0965 26.5837 17.8673C25.4585 16.7335 24.3338 15.5991 23.2089 14.4649C22.1045 13.3514 21 12.2381 19.8957 11.1246C19.704 10.9313 19.6954 10.7693 19.8691 10.5921C20.8816 9.55963 23.3784 7.04415 24.3908 6.01169C23.6579 5.27873 23.728 5.34891 22.912 4.53286C21.9786 5.47853 18.8299 8.63418 17.8986 9.58179C17.3647 10.125 17.2471 10.8952 17.5574 11.538C16.9509 11.2652 16.2188 11.3625 15.7043 11.846C15.32 12.2072 10.9305 16.5997 10.555 16.9703C11.5523 17.9676 10.9857 17.4011 11.9989 18.4142C13.1696 17.2567 15.3406 15.097 16.5112 13.9394C16.777 13.6764 16.9131 13.6755 17.1734 13.9341C17.9497 14.7054 18.7264 15.4764 19.5016 16.2486C20.9659 17.7071 22.4294 19.1663 23.8928 20.6256C24.0891 20.8214 24.0882 20.9801 23.8914 21.1815C23.6729 21.4052 23.4534 21.6278 23.2335 21.85C23.0317 22.0537 22.8693 22.0578 22.6677 21.8607C22.273 21.4749 21.8798 21.0876 21.4868 20.7001C20.3702 19.599 19.2566 18.4949 18.1368 17.3971C17.4581 16.7319 16.3579 16.6955 15.6454 17.3256C15.2654 17.6618 14.9159 18.0325 14.5541 18.3892C13.1938 19.7301 11.8327 21.0702 10.4751 22.4139C10.1546 22.7311 10.0065 23.126 10 23.5753C10.0028 23.965 10.1616 24.4199 10.3623 24.6176C11.0098 25.2551 11.657 25.8928 12.3041 26.5305C13.3932 27.6038 14.4823 28.677 15.5711 29.7505C16.2932 30.4624 17.4483 30.4702 18.173 29.7633C18.7114 29.238 19.2453 28.7081 19.781 28.18C20.7483 27.2264 21.7151 26.2725 22.6827 25.3194C22.8561 25.1485 23.0324 25.1463 23.2074 25.3154C23.4286 25.5293 23.6456 25.7477 23.8649 25.9636C24.0948 26.1899 24.0965 26.3283 23.8673 26.5558C22.7335 27.681 21.5991 28.8057 20.4649 29.9307C19.3515 31.035 18.2382 32.1395 17.1246 33.2438C16.9313 33.4355 16.7693 33.4441 16.5921 33.2704C15.5596 32.2579 13.0442 29.7611 12.0117 28.7487C11.2787 29.4816 11.3489 29.4115 10.5329 30.2275C11.4785 31.1608 14.6342 34.3096 15.5818 35.2409C16.125 35.7748 16.8951 35.8924 17.5379 35.5821C17.2651 36.1886 17.3625 36.9207 17.846 37.4352C18.2071 37.8196 22.5997 42.209 22.9703 42.5845C23.9676 41.5872 23.401 42.1538 24.4141 41.1407C23.2567 39.9699 21.097 37.7989 19.9393 36.6284C19.6764 36.3625 19.6755 36.2264 19.9341 35.9661C20.7053 35.1898 21.4763 34.4132 22.2486 33.6379C23.7071 32.1737 25.1663 30.7101 26.6256 29.2468C26.8214 29.0505 26.98 29.0513 27.1815 29.2481C27.4052 29.4666 27.6278 29.6861 27.85 29.9061C28.0537 30.1078 28.0578 30.2702 27.8607 30.4718C27.4749 30.8665 27.0876 31.2598 26.7 31.6528C25.599 32.7693 24.4948 33.8829 23.3971 35.0028C22.7319 35.6814 22.6954 36.7816 23.3256 37.4941C23.6617 37.8742 24.0325 38.2237 24.3892 38.5855C25.73 39.9458 27.0702 41.3068 28.4138 42.6644C28.7311 42.9849 29.126 43.133 29.5752 43.1395C29.965 43.1367 30.4199 42.978 30.6176 42.7772C31.255 42.1297 31.8928 41.4825 32.5305 40.8354C33.6038 39.7463 34.677 38.6572 35.7504 37.5684C36.4624 36.8463 36.4702 35.6912 35.7633 34.9666C35.238 34.4281 34.7081 33.8942 34.1799 33.3585C33.2264 32.3913 32.2725 31.4245 31.3194 30.4568C31.1485 30.2834 31.1463 30.1072 31.3154 29.9322C31.5293 29.7109 31.7477 29.494 31.9636 29.2747C32.1899 29.0448 32.3283 29.043 32.5558 29.2722C33.681 30.4061 34.8057 31.5405 35.9306 32.6746C37.035 33.7881 38.1395 34.9014 39.2438 36.0149C39.4354 36.2082 39.4441 36.3702 39.2704 36.5474C38.2579 37.5799 35.7611 40.0954 34.7487 41.1278C35.4816 41.8608 35.4115 41.7906 36.2275 42.6067C37.1608 41.661 40.3096 38.5053 41.2409 37.5577C41.7748 37.0145 41.8924 36.2443 41.5821 35.6015C42.1886 35.8743 42.9207 35.777 43.4352 35.2935C43.8196 34.9323 48.209 30.5398 48.5845 30.1692L47.1407 28.7253C45.9699 29.8828 43.7989 32.0424 42.6284 33.2001C42.3625 33.4631 42.2264 33.464 41.9661 33.2054C41.1897 32.4341 40.4132 31.6631 39.6378 30.8908C38.1737 29.4324 36.7101 27.9732 35.2467 26.5139C35.0505 26.3181 35.0513 26.1594 35.2482 25.9579C35.4666 25.7343 35.6861 25.5116 35.9061 25.2895ZM37.9348 23.2904C39.2777 21.9606 40.6212 20.6312 41.9664 19.3037C42.1934 19.0796 42.3377 19.0866 42.5641 19.3098C43.096 19.8343 43.6298 20.3569 44.1613 20.8818C44.3837 21.1014 44.3533 21.3161 44.0787 21.4713C43.0984 22.0253 42.1169 22.5775 41.1368 23.132C41.0661 23.1721 41.0168 23.1745 40.9413 23.1249C40.639 22.9267 40.2599 23.0397 40.1069 23.3879C40.4117 23.3879 40.6987 23.3879 40.9855 23.3879C41.6254 23.3879 42.2652 23.3867 42.9049 23.3894C42.9906 23.3898 43.0439 23.372 43.0904 23.2884C43.2125 23.0691 43.4571 22.9803 43.7079 23.0464C43.9447 23.1088 44.1193 23.3198 44.1257 23.5512C44.1327 23.8063 43.9748 24.0277 43.7309 24.1049C43.4904 24.1811 43.2217 24.1042 43.1037 23.8921C43.0336 23.7664 42.9519 23.7475 42.8255 23.7482C41.9804 23.7531 41.1354 23.7507 40.2904 23.7507H40.1145C40.2213 24.1066 40.6358 24.243 40.9479 24.0238C41.0439 23.9565 41.1071 23.9581 41.205 24.0115C42.1936 24.55 43.1853 25.0827 44.1754 25.6183C44.4076 25.7438 44.4456 25.9748 44.2579 26.1622C43.7947 26.6246 43.3266 27.0818 42.8603 27.5409C42.7593 27.6402 42.6577 27.7389 42.5559 27.8373C42.3802 28.0072 42.2066 28.009 42.0323 27.8377C41.1929 27.0128 40.3544 26.1868 39.5154 25.3614C38.9899 24.8443 38.4639 24.3277 37.9383 23.8106C37.76 23.6351 37.7562 23.4672 37.9348 23.2904ZM21.2048 23.8491C19.8618 25.1789 18.5183 26.5082 17.1731 27.8358C16.9461 28.0598 16.8019 28.0529 16.5755 27.8297C16.0436 27.3052 15.5097 26.7826 14.9782 26.2576C14.7559 26.0381 14.7863 25.8233 15.0608 25.6682C16.0412 25.1142 17.0226 24.562 18.0027 24.0074C18.0734 23.9674 18.1227 23.965 18.1983 24.0145C18.5006 24.2128 18.8796 24.0998 19.0327 23.7516H18.154C17.5142 23.7516 16.8744 23.7528 16.2346 23.7501C16.149 23.7497 16.0957 23.7675 16.0491 23.8511C15.9271 24.0704 15.6824 24.1592 15.4316 24.0931C15.1949 24.0307 15.0202 23.8197 15.0138 23.5883C15.0068 23.3332 15.1647 23.1118 15.4086 23.0345C15.6491 22.9584 15.9178 23.0353 16.0359 23.2473C16.1059 23.3731 16.1876 23.392 16.3141 23.3913C17.1591 23.3864 18.0041 23.3887 18.8492 23.3887H19.0251C18.9183 23.0329 18.5038 22.8965 18.1916 23.1157C18.0956 23.183 18.0324 23.1813 17.9345 23.128C16.946 22.5895 15.9543 22.0568 14.9641 21.5212C14.732 21.3956 14.694 21.1646 14.8817 20.9772C15.3448 20.5149 15.8129 20.0577 16.2793 19.5986C16.3802 19.4992 16.4818 19.4006 16.5836 19.3021C16.7593 19.1322 16.9329 19.1305 17.1072 19.3018C17.9467 20.1267 18.7851 20.9527 19.6241 21.7781C20.1497 22.2952 20.6757 22.8118 21.2012 23.3289C21.3795 23.5043 21.3833 23.6723 21.2048 23.8491ZM25.3037 11.1731C25.0797 10.9461 25.0866 10.8018 25.3098 10.5755C25.8343 10.0435 26.3569 9.50972 26.8819 8.97822C27.1015 8.7559 27.3162 8.78629 27.4713 9.06078C28.0253 10.0412 28.5775 11.0226 29.132 12.0027C29.1721 12.0734 29.1745 12.1227 29.125 12.1983C28.9267 12.5005 29.0397 12.8796 29.3879 13.0326V12.154C29.3879 11.5142 29.3867 10.8744 29.3894 10.2346C29.3898 10.149 29.372 10.0957 29.2884 10.0491C29.0692 9.92706 28.9803 9.6824 29.0464 9.43164C29.1088 9.19483 29.3198 9.02019 29.5512 9.01384C29.8063 9.00683 30.0277 9.16471 30.105 9.40865C30.1811 9.64911 30.1042 9.91781 29.8922 10.0359C29.7664 10.1059 29.7475 10.1876 29.7482 10.3141C29.7531 11.1591 29.7508 12.0041 29.7508 12.8492V13.0251C30.1066 12.9183 30.243 12.5038 30.0238 12.1916C29.9565 12.0956 29.9582 12.0324 30.0115 11.9345C30.55 10.946 31.0827 9.95425 31.6183 8.96412C31.7439 8.73198 31.9749 8.69397 32.1623 8.88167C32.6246 9.34479 33.0819 9.81292 33.5409 10.2793C33.6403 10.3802 33.7389 10.4818 33.8374 10.5836C34.0073 10.7593 34.009 10.9329 33.8377 11.1072C33.0128 11.9467 32.1868 12.7851 31.3614 13.6241C30.8443 14.1496 30.3277 14.6757 29.8106 15.2012C29.6352 15.3795 29.4672 15.3833 29.2904 15.2048C27.9606 13.8618 26.6312 12.5183 25.3037 11.1731ZM33.8358 35.9664C34.0598 36.1934 34.0529 36.3377 33.8297 36.564C33.3052 37.096 32.7826 37.6298 32.2576 38.1613C32.038 38.3836 31.8233 38.3532 31.6682 38.0787C31.1142 37.0984 30.5619 36.1169 30.0074 35.1368C29.9674 35.0661 29.965 35.0168 30.0145 34.9412C30.2128 34.639 30.0998 34.2599 29.7516 34.1069V34.9856C29.7516 35.6253 29.7527 36.2651 29.75 36.9049C29.7497 36.9906 29.7674 37.0439 29.851 37.0904C30.0703 37.2125 30.1592 37.4571 30.0931 37.7079C30.0307 37.9447 29.8197 38.1193 29.5882 38.1257C29.3332 38.1327 29.1118 37.9748 29.0345 37.7309C28.9583 37.4904 29.0353 37.2217 29.2473 37.1037C29.3731 37.0336 29.392 36.9519 29.3913 36.8255C29.3864 35.9804 29.3887 35.1354 29.3887 34.2904V34.1145C29.0328 34.2213 28.8965 34.6358 29.1156 34.948C29.183 35.0439 29.1813 35.1071 29.128 35.205C28.5895 36.1936 28.0568 37.1853 27.5212 38.1754C27.3956 38.4076 27.1646 38.4456 26.9772 38.2578C26.5149 37.7947 26.0576 37.3266 25.5985 36.8603C25.4992 36.7593 25.4006 36.6577 25.3021 36.5559C25.1322 36.3802 25.1305 36.2066 25.3018 36.0323C26.1267 35.1928 26.9527 34.3544 27.7781 33.5155C28.2952 32.9899 28.8118 32.4639 29.3289 31.9383C29.5043 31.76 29.6723 31.7562 29.8491 31.9347C31.1789 33.2777 32.5082 34.6212 33.8358 35.9664ZM32.0295 26.7345C31.657 26.7844 31.3447 26.9502 31.081 27.2135C30.68 27.6141 30.2795 28.0151 29.8784 28.4155C29.6568 28.6368 29.5053 28.6345 29.2834 28.4083C29.2629 28.3874 29.2438 28.3651 29.2233 28.3442C28.8267 27.9394 28.4353 27.5294 28.0323 27.1312C27.5736 26.6782 26.9234 26.5516 26.3545 26.7433C26.4211 26.522 26.4392 26.284 26.4051 26.0295C26.3552 25.6571 26.1894 25.3447 25.926 25.081C25.5255 24.68 25.1244 24.2796 24.7241 23.8784C24.5028 23.6568 24.505 23.5053 24.7313 23.2834C24.7521 23.2629 24.7745 23.2438 24.7954 23.2233C25.2002 22.8268 25.6101 22.4354 26.0083 22.0323C26.4614 21.5736 26.588 20.9235 26.3963 20.3545C26.6175 20.4211 26.8554 20.4392 27.11 20.4051C27.4825 20.3551 27.7948 20.1894 28.0585 19.926C28.4595 19.5255 28.8599 19.1244 29.2611 18.724C29.4827 18.5028 29.6342 18.505 29.8561 18.7312C29.8766 18.7521 29.8957 18.7744 29.9162 18.7953C30.3127 19.2001 30.7042 19.6101 31.1072 20.0083C31.5659 20.4614 32.216 20.5879 32.785 20.3962C32.7185 20.6175 32.7003 20.8555 32.7344 21.1099C32.7844 21.4824 32.9501 21.7948 33.2135 22.0585C33.614 22.4595 34.0151 22.8599 34.4155 23.261C34.6367 23.4827 34.6345 23.6342 34.4083 23.8561C34.3874 23.8766 34.3651 23.8957 34.3442 23.9162C33.9394 24.3127 33.5294 24.7041 33.1313 25.1072C32.6781 25.5659 32.5515 26.2161 32.7433 26.7851C32.522 26.7185 32.284 26.7003 32.0295 26.7345Z" fill="white"/>
</g>
<path d="M60.2783 29.6272C60.1644 29.6272 60.0822 29.583 60.0316 29.4944C59.981 29.4058 59.9556 29.311 59.9556 29.2098C59.9683 28.9947 60.0189 28.8745 60.1075 28.8492C60.196 28.8239 60.3036 28.8112 60.4301 28.8112C60.8349 28.8112 61.1196 28.7417 61.284 28.6025C61.4485 28.4507 61.5497 28.2672 61.5876 28.0522C61.6383 27.8245 61.6636 27.5904 61.6636 27.35V19.8163C61.6636 19.5759 61.6383 19.3482 61.5876 19.1331C61.5497 18.9054 61.4485 18.7219 61.284 18.5828C61.1196 18.431 60.8349 18.3551 60.4301 18.3551C60.3036 18.3551 60.196 18.3424 60.1075 18.3171C60.0189 18.2918 59.9683 18.1716 59.9556 17.9565C59.9556 17.8553 59.981 17.7605 60.0316 17.6719C60.0822 17.5833 60.1644 17.5391 60.2783 17.5391C60.6957 17.5517 61.0816 17.5644 61.4358 17.577C61.7901 17.5897 62.157 17.596 62.5365 17.596C63.3082 17.596 64.0989 17.577 64.9086 17.5391C65.0351 17.5391 65.1236 17.5833 65.1743 17.6719C65.2249 17.7605 65.2502 17.8553 65.2502 17.9565C65.2375 18.1716 65.1869 18.2918 65.0983 18.3171C65.0098 18.3424 64.9023 18.3551 64.7757 18.3551C64.3836 18.3551 64.0989 18.431 63.9218 18.5828C63.7573 18.7219 63.6561 18.9054 63.6182 19.1331C63.5802 19.3482 63.5549 19.5759 63.5423 19.8163V27.6347C63.5549 27.7991 63.5802 27.9763 63.6182 28.166C63.6561 28.3558 63.7636 28.5139 63.9408 28.6405C64.1305 28.767 64.4405 28.8239 64.8706 28.8112H66.5785C67.0213 28.7986 67.3566 28.729 67.5843 28.6025C67.8247 28.4633 68.0144 28.2356 68.1536 27.9193C68.2928 27.6031 68.4446 27.1666 68.609 26.6099C68.6596 26.4834 68.7419 26.4012 68.8557 26.3632C68.9823 26.3253 69.1151 26.319 69.2543 26.3443C69.3555 26.3569 69.4567 26.4012 69.5579 26.4771C69.6717 26.553 69.7223 26.6542 69.7097 26.7807L69.3302 29.1718C69.2922 29.3489 69.229 29.4628 69.1404 29.5134C69.0645 29.5513 68.9443 29.5703 68.7798 29.5703H62.5555C62.1759 29.5703 61.8027 29.5703 61.4358 29.5703C61.0816 29.583 60.6957 29.6019 60.2783 29.6272ZM75.1995 29.798C74.2253 29.798 73.403 29.5893 72.7325 29.1718C72.0746 28.7543 71.5812 28.1977 71.2523 27.5018C70.9234 26.806 70.7589 26.047 70.7589 25.2246C70.7589 24.668 70.8538 24.1303 71.0436 23.6116C71.246 23.0803 71.5306 22.5995 71.8975 22.1694C72.2644 21.7266 72.7072 21.3787 73.2259 21.1257C73.7446 20.8726 74.3329 20.7461 74.9907 20.7461C76.1546 20.7461 77.0276 21.0498 77.6095 21.657C78.2041 22.2516 78.5457 23.0107 78.6343 23.9342C78.6343 24.377 78.5077 24.668 78.2547 24.8071C78.0143 24.9463 77.6981 25.0159 77.3059 25.0159H72.6945C72.6945 25.7497 72.7957 26.4075 72.9982 26.9895C73.2006 27.5588 73.5169 28.0142 73.947 28.3558C74.3898 28.6847 74.9717 28.8492 75.6929 28.8492C76.2242 28.8492 76.6796 28.7353 77.0592 28.5076C77.4387 28.2799 77.8056 27.8814 78.1598 27.3121C78.261 27.1856 78.4002 27.1792 78.5773 27.2931C78.6785 27.3437 78.7418 27.4259 78.7671 27.5398C78.7924 27.641 78.7797 27.7296 78.7291 27.8055C78.3369 28.4254 77.8436 28.9125 77.2489 29.2667C76.6543 29.6209 75.9712 29.798 75.1995 29.798ZM72.6945 24.2948H75.7877C76.0914 24.2948 76.3317 24.2378 76.5089 24.124C76.6986 23.9975 76.7998 23.7887 76.8125 23.4978C76.8125 22.9538 76.6607 22.473 76.357 22.0555C76.0661 21.6254 75.6106 21.4103 74.9907 21.4103C74.3582 21.4103 73.8268 21.6633 73.3967 22.1694C72.9792 22.6754 72.7451 23.3839 72.6945 24.2948ZM79.6502 29.6272C79.5617 29.6272 79.4921 29.583 79.4415 29.4944C79.3909 29.4058 79.3656 29.3236 79.3656 29.2477C79.3782 29.0579 79.4225 28.9567 79.4984 28.9441C79.587 28.9188 79.6819 28.9061 79.7831 28.9061C80.1879 28.9061 80.4852 28.8112 80.675 28.6215C80.8648 28.4317 81.1178 28.1534 81.4341 27.7865C81.6744 27.5208 81.9654 27.1792 82.307 26.7618C82.6486 26.3443 82.9965 25.9141 83.3507 25.4713L81.1874 22.4161C81.0229 22.201 80.8521 22.0365 80.675 21.9227C80.4979 21.7962 80.2702 21.7076 79.9918 21.657C79.8274 21.6317 79.7135 21.6064 79.6502 21.5811C79.5996 21.5558 79.568 21.4609 79.5554 21.2965C79.5427 21.0814 79.5996 20.9675 79.7262 20.9549C79.8653 20.9296 80.0298 20.9106 80.2195 20.8979C81.51 20.8347 82.4462 21.1889 83.0281 21.9606C83.1673 22.1378 83.3507 22.4224 83.5784 22.8146C83.8062 23.1941 84.1035 23.6243 84.4703 24.105L85.7418 22.454C85.9822 22.1125 86.0897 21.8974 86.0644 21.8088C86.0391 21.7076 85.7734 21.6507 85.2674 21.638C85.1535 21.638 85.0586 21.6317 84.9827 21.6191C84.9068 21.5938 84.8625 21.4862 84.8499 21.2965C84.8499 21.2205 84.8689 21.1383 84.9068 21.0498C84.9574 20.9612 85.027 20.9169 85.1156 20.9169C85.4824 20.9296 85.7544 20.9422 85.9315 20.9549C86.1213 20.9675 86.3807 20.9738 86.7096 20.9738C87.0385 20.9738 87.2979 20.9675 87.4876 20.9549C87.6901 20.9422 87.9747 20.9296 88.3416 20.9169C88.4428 20.9169 88.5124 20.9612 88.5503 21.0498C88.6009 21.1383 88.6262 21.2205 88.6262 21.2965C88.6136 21.4862 88.563 21.5874 88.4744 21.6001C88.3985 21.6127 88.31 21.6254 88.2088 21.638C87.9557 21.6507 87.747 21.695 87.5825 21.7709C87.4181 21.8341 87.2599 21.9417 87.1081 22.0935C86.9689 22.2453 86.7855 22.4667 86.5578 22.7577C86.3933 22.9474 86.1719 23.2194 85.8936 23.5737C85.6279 23.9279 85.318 24.3201 84.9637 24.7502C85.3812 25.2942 85.7924 25.8382 86.1972 26.3822C86.6147 26.9136 86.9753 27.3817 87.2789 27.7865C87.4813 28.0648 87.7027 28.3242 87.9431 28.5645C88.1961 28.7923 88.4808 28.9061 88.797 28.9061C88.9109 28.9061 89.0058 28.9188 89.0817 28.9441C89.1702 28.9567 89.2209 29.0579 89.2335 29.2477C89.2335 29.3363 89.2082 29.4248 89.1576 29.5134C89.107 29.5893 89.0311 29.6272 88.9299 29.6272C88.563 29.6019 88.253 29.583 88 29.5703C87.747 29.5703 87.4497 29.5703 87.1081 29.5703C86.7665 29.5703 86.4376 29.5703 86.1213 29.5703C85.805 29.583 85.4635 29.6019 85.0966 29.6272C85.008 29.6272 84.9321 29.5893 84.8689 29.5134C84.8182 29.4248 84.7929 29.3363 84.7929 29.2477C84.8056 29.0579 84.8499 28.9567 84.9258 28.9441C85.0143 28.9188 85.1155 28.9061 85.2294 28.9061C85.4824 28.9061 85.6153 28.8302 85.6279 28.6784C85.6406 28.5266 85.552 28.3305 85.3622 28.0901L83.8821 26.1165L82.2501 28.0901C81.9844 28.4317 81.8832 28.6531 81.9464 28.7543C82.0223 28.8555 82.2817 28.9061 82.7245 28.9061C82.8383 28.9061 82.9332 28.9188 83.0091 28.9441C83.085 28.9567 83.1293 29.0579 83.142 29.2477C83.142 29.3236 83.123 29.4058 83.085 29.4944C83.0471 29.583 82.9775 29.6272 82.8763 29.6272C82.5221 29.6019 82.2501 29.583 82.0603 29.5703C81.8705 29.5703 81.6112 29.5703 81.2822 29.5703C80.9533 29.5703 80.6876 29.5703 80.4852 29.5703C80.2955 29.583 80.0171 29.6019 79.6502 29.6272ZM93.6489 29.6272C93.5223 29.6272 93.4338 29.583 93.3832 29.4944C93.3326 29.4058 93.3073 29.311 93.3073 29.2098C93.3199 28.9947 93.3705 28.8745 93.4591 28.8492C93.5476 28.8239 93.6552 28.8112 93.7817 28.8112C94.1233 28.8112 94.3826 28.7417 94.5597 28.6025C94.7369 28.4633 94.876 28.2799 94.9772 28.0522C95.0911 27.8245 95.1986 27.5904 95.2998 27.35L98.6208 19.4937C98.7473 19.19 98.7726 18.9623 98.6967 18.8105C98.6208 18.646 98.4943 18.5322 98.3171 18.4689C98.14 18.393 97.9439 18.3361 97.7289 18.2981C97.5391 18.2602 97.4126 18.2285 97.3493 18.2032C97.2861 18.1653 97.2544 18.0514 97.2544 17.8617C97.2544 17.6466 97.3303 17.5327 97.4822 17.5201C97.634 17.4948 97.8111 17.4821 98.0135 17.4821C98.5322 17.4821 98.975 17.5327 99.3419 17.6339C99.7088 17.7351 100.025 17.9312 100.291 18.2222C100.556 18.5005 100.803 18.9244 101.031 19.4937L104.219 27.35C104.307 27.5651 104.402 27.7865 104.504 28.0142C104.605 28.2419 104.738 28.4317 104.902 28.5835C105.079 28.7227 105.301 28.7986 105.566 28.8112C105.705 28.8112 105.813 28.8239 105.889 28.8492C105.977 28.8745 106.028 28.9947 106.041 29.2098C106.041 29.311 106.009 29.4058 105.946 29.4944C105.895 29.583 105.813 29.6272 105.699 29.6272C105.294 29.6019 104.94 29.583 104.636 29.5703C104.333 29.5703 103.991 29.5703 103.612 29.5703C102.865 29.5703 102.081 29.5893 101.259 29.6272C101.132 29.6272 101.043 29.583 100.993 29.4944C100.942 29.4058 100.917 29.311 100.917 29.2098C100.93 28.9947 100.98 28.8745 101.069 28.8492C101.157 28.8239 101.265 28.8112 101.391 28.8112C102.011 28.8112 102.347 28.6974 102.397 28.4697C102.46 28.2419 102.403 27.8687 102.226 27.35L101.581 25.775H96.8939C96.7041 26.2557 96.5649 26.6036 96.4764 26.8187C96.4005 27.0338 96.3499 27.1729 96.3246 27.2362C96.3119 27.2994 96.2993 27.3374 96.2866 27.35C96.1475 27.7802 96.0716 28.1028 96.0589 28.3178C96.0589 28.5203 96.1601 28.6531 96.3625 28.7164C96.5776 28.7796 96.9318 28.8112 97.4252 28.8112C97.5644 28.8112 97.6719 28.8239 97.7478 28.8492C97.8364 28.8745 97.887 28.9947 97.8996 29.2098C97.8996 29.311 97.868 29.4058 97.8048 29.4944C97.7542 29.583 97.6719 29.6272 97.5581 29.6272C97.1532 29.6019 96.799 29.583 96.4954 29.5703C96.2044 29.5703 95.8691 29.5703 95.4896 29.5703C95.2366 29.5703 95.0215 29.5703 94.8444 29.5703C94.6799 29.583 94.5091 29.5893 94.332 29.5893C94.1549 29.6019 93.9272 29.6146 93.6489 29.6272ZM97.2544 24.959H101.24L99.3229 20.0819H99.266L97.2544 24.959ZM106.863 29.6272C106.774 29.6272 106.698 29.5893 106.635 29.5134C106.584 29.4248 106.559 29.3363 106.559 29.2477C106.584 29.0579 106.635 28.9567 106.711 28.9441C106.787 28.9188 106.888 28.9061 107.015 28.9061C107.369 28.9061 107.609 28.8492 107.736 28.7353C107.862 28.6088 107.932 28.4444 107.944 28.2419C107.97 28.0395 107.982 27.8308 107.982 27.6157V23.27C107.982 23.0423 107.97 22.8336 107.944 22.6438C107.932 22.4414 107.862 22.2832 107.736 22.1694C107.609 22.0429 107.369 21.9796 107.015 21.9796C106.901 21.9796 106.793 21.967 106.692 21.9417C106.603 21.9037 106.559 21.7898 106.559 21.6001C106.559 21.4103 106.66 21.2965 106.863 21.2585C107.445 21.1699 107.887 21.0814 108.191 20.9928C108.507 20.9043 108.748 20.8284 108.912 20.7651C109.077 20.7018 109.222 20.6639 109.349 20.6512C109.45 20.6386 109.532 20.6576 109.595 20.7082C109.671 20.7588 109.709 20.86 109.709 21.0118V27.6157C109.709 27.8308 109.716 28.0395 109.728 28.2419C109.754 28.4444 109.829 28.6088 109.956 28.7353C110.095 28.8492 110.342 28.9061 110.696 28.9061C110.81 28.9061 110.905 28.9188 110.981 28.9441C111.069 28.9567 111.12 29.0579 111.133 29.2477C111.133 29.3363 111.107 29.4248 111.057 29.5134C111.006 29.5893 110.93 29.6272 110.829 29.6272C110.462 29.6019 110.12 29.583 109.804 29.5703C109.501 29.5703 109.178 29.5703 108.836 29.5703C108.495 29.5703 108.172 29.5703 107.869 29.5703C107.565 29.583 107.23 29.6019 106.863 29.6272ZM108.741 18.5448C108.387 18.5448 108.09 18.4373 107.85 18.2222C107.609 17.9945 107.489 17.7162 107.489 17.3872C107.489 17.0963 107.634 16.8369 107.925 16.6092C108.216 16.3815 108.545 16.2676 108.912 16.2676C109.229 16.2676 109.488 16.3815 109.69 16.6092C109.893 16.8243 109.994 17.1026 109.994 17.4442C109.994 17.7478 109.874 18.0071 109.633 18.2222C109.393 18.4373 109.096 18.5448 108.741 18.5448Z" fill="#F4F4F4"/>
<defs>
<clipPath id="clip0_3619_63245">
<rect width="39.1395" height="39.1395" fill="white" transform="translate(10 4)"/>
</clipPath>
</defs>
</svg>
